<svg xmlns="http://www.w3.org/2000/svg" width="85" height="60" viewBox="0 0 85 60"><g transform="translate(7155 11132)"><rect width="85" height="60" transform="translate(-7155 -11132)" fill="none"/><g transform="translate(-2.83 -97.246)"><g transform="translate(-7292.843 -11187)"><path d="M326.108,107.32l-18.564-6.838-18.384,6.746c-2.346,1.137-4.4,1.818-4.4,4.06v11.165a43.021,43.021,0,0,0,6.056,22.222A38.043,38.043,0,0,0,307.724,160c7.515-2.5,13.124-9.178,16.553-14.887a43.015,43.015,0,0,0,6.056-22.221v-10.04c0-3.2-1.652-4.76-4.225-5.529" transform="translate(-121.912 52)" fill="#ebebeb"/><path d="M326.108,107.32l-18.564-6.838-18.384,6.746c-2.346,1.137-4.4,1.818-4.4,4.06v11.165a43.021,43.021,0,0,0,6.056,22.222A38.043,38.043,0,0,0,307.724,160c7.515-2.5,13.124-9.178,16.553-14.887a43.015,43.015,0,0,0,6.056-22.221v-10.04c0-3.2-1.652-4.76-4.225-5.529" transform="translate(-121.912 52)" fill="none"/><path d="M321.263,136.432h-4.128V113.965a9.59,9.59,0,1,0-19.181,0v22.467h-4.128V113.965a13.719,13.719,0,1,1,27.437,0Z" transform="translate(-121.912 52)" fill="#303030"/><path d="M320.221,150.16H294.868a5.811,5.811,0,0,1-5.811-5.811v-12.1a5.811,5.811,0,0,1,5.811-5.811h25.353a5.811,5.811,0,0,1,5.811,5.811v12.1a5.811,5.811,0,0,1-5.811,5.811" transform="translate(-121.912 52)" fill="#303030"/></g></g></g></svg>