<svg xmlns="http://www.w3.org/2000/svg" width="85" height="60" viewBox="0 0 85 60"><g transform="translate(6925 11215)"><rect width="85" height="60" transform="translate(-6925 -11215)" fill="none"/><path d="M14.58,57.283a1.472,1.472,0,0,0-.63-.536l-.321-.143.294-.194a1.465,1.465,0,0,0,.536-.63l.143-.321.194.294a1.467,1.467,0,0,0,.63.537l.321.143-.294.193a1.487,1.487,0,0,0-.537.63l-.143.321Zm17.7-9.543a5.818,5.818,0,0,1-5.812-5.813v-12.1a5.82,5.82,0,0,1,5.812-5.812H57.637a5.816,5.816,0,0,1,5.809,5.812v12.1a5.817,5.817,0,0,1-5.809,5.813Zm9.59-14.954a3.1,3.1,0,0,0,2.245,2.96v4.62H45.8v-4.62a3.084,3.084,0,1,0-3.933-2.96ZM2.754,44.572A4.25,4.25,0,0,0,.929,43.019L0,42.6l.852-.558A4.242,4.242,0,0,0,2.4,40.22l.415-.929.557.85A4.278,4.278,0,0,0,5.2,41.7l.929.415-.852.558A4.27,4.27,0,0,0,3.724,44.5l-.414.929ZM77.837,33.717a1.458,1.458,0,0,0-.63-.536l-.321-.143.294-.194a1.467,1.467,0,0,0,.537-.63l.143-.321.193.294a1.487,1.487,0,0,0,.63.537l.322.143-.3.193a1.49,1.49,0,0,0-.536.63l-.143.322ZM13.739,20.8a2.523,2.523,0,0,0-1.087-.924l-.551-.247.506-.334a2.534,2.534,0,0,0,.924-1.084l.247-.554.332.508a2.56,2.56,0,0,0,1.086.925l.552.247-.506.331a2.568,2.568,0,0,0-.925,1.084l-.247.554Zm68.785-3.566a2.518,2.518,0,0,0-1.087-.925l-.551-.247.506-.334a2.53,2.53,0,0,0,.924-1.085l.247-.553.332.508a2.554,2.554,0,0,0,1.086.925l.552.247-.506.332A2.557,2.557,0,0,0,83.1,17.19l-.247.553Zm-5.6-11.958A4.26,4.26,0,0,0,75.1,3.726l-.929-.417.852-.558A4.242,4.242,0,0,0,76.576.929L76.991,0l.557.85A4.275,4.275,0,0,0,79.373,2.4l.929.415-.852.558A4.28,4.28,0,0,0,77.9,5.2l-.414.929Z" transform="translate(-6925 -11214)" fill="#3398e7"/></g></svg>