<svg xmlns="http://www.w3.org/2000/svg" xmlns:xlink="http://www.w3.org/1999/xlink" width="250" height="158.222" viewBox="0 0 250 158.222">
  <defs>
    <clipPath id="clip-path">
      <rect id="Rectangle_4205" data-name="Rectangle 4205" width="95.073" height="117.905" fill="none"/>
    </clipPath>
    <clipPath id="clip-path-2">
      <rect id="Rectangle_4206" data-name="Rectangle 4206" width="6.441" height="5.923" fill="none"/>
    </clipPath>
    <clipPath id="clip-path-3">
      <rect id="Rectangle_4207" data-name="Rectangle 4207" width="17.442" height="5.923" fill="none"/>
    </clipPath>
    <clipPath id="clip-path-4">
      <rect id="Rectangle_4208" data-name="Rectangle 4208" width="74.76" height="37.231" fill="none"/>
    </clipPath>
    <clipPath id="clip-path-5">
      <rect id="Rectangle_4209" data-name="Rectangle 4209" width="44.589" height="35.73" fill="none"/>
    </clipPath>
    <clipPath id="clip-path-6">
      <rect id="Rectangle_4210" data-name="Rectangle 4210" width="10.232" height="8.144" fill="none"/>
    </clipPath>
    <clipPath id="clip-path-7">
      <rect id="Rectangle_4211" data-name="Rectangle 4211" width="13.18" height="2.75" fill="none"/>
    </clipPath>
    <clipPath id="clip-path-8">
      <rect id="Rectangle_4212" data-name="Rectangle 4212" width="14.343" height="2.75" fill="none"/>
    </clipPath>
    <clipPath id="clip-path-9">
      <rect id="Rectangle_4213" data-name="Rectangle 4213" width="24.656" height="2.75" fill="none"/>
    </clipPath>
    <clipPath id="clip-path-10">
      <rect id="Rectangle_4214" data-name="Rectangle 4214" width="25.82" height="2.75" fill="none"/>
    </clipPath>
    <clipPath id="clip-path-11">
      <rect id="Rectangle_4215" data-name="Rectangle 4215" width="22.857" height="2.75" fill="none"/>
    </clipPath>
    <clipPath id="clip-path-12">
      <rect id="Rectangle_4216" data-name="Rectangle 4216" width="25.819" height="2.75" fill="none"/>
    </clipPath>
    <clipPath id="clip-path-13">
      <rect id="Rectangle_4217" data-name="Rectangle 4217" width="18.653" height="2.75" fill="none"/>
    </clipPath>
    <clipPath id="clip-path-14">
      <rect id="Rectangle_4218" data-name="Rectangle 4218" width="63.962" height="19.39" fill="none"/>
    </clipPath>
    <clipPath id="clip-path-15">
      <rect id="Rectangle_4219" data-name="Rectangle 4219" width="3.689" height="4.288" fill="none"/>
    </clipPath>
    <clipPath id="clip-path-16">
      <rect id="Rectangle_4220" data-name="Rectangle 4220" width="5.864" height="38.825" fill="none"/>
    </clipPath>
    <clipPath id="clip-path-17">
      <rect id="Rectangle_4221" data-name="Rectangle 4221" width="4.401" height="4.288" fill="none"/>
    </clipPath>
    <clipPath id="clip-path-18">
      <rect id="Rectangle_4222" data-name="Rectangle 4222" width="5.329" height="2.014" fill="none"/>
    </clipPath>
    <clipPath id="clip-path-19">
      <rect id="Rectangle_4224" data-name="Rectangle 4224" width="2.387" height="3.381" fill="none"/>
    </clipPath>
    <clipPath id="clip-path-20">
      <rect id="Rectangle_4227" data-name="Rectangle 4227" width="0.924" height="5.172" fill="none"/>
    </clipPath>
    <clipPath id="clip-path-21">
      <rect id="Rectangle_4228" data-name="Rectangle 4228" width="1.52" height="5.441" fill="none"/>
    </clipPath>
    <clipPath id="clip-path-22">
      <rect id="Rectangle_4229" data-name="Rectangle 4229" width="5.166" height="1.445" fill="none"/>
    </clipPath>
    <clipPath id="clip-path-23">
      <rect id="Rectangle_4230" data-name="Rectangle 4230" width="5.777" height="4.583" fill="none"/>
    </clipPath>
    <clipPath id="clip-path-24">
      <rect id="Rectangle_4231" data-name="Rectangle 4231" width="7.141" height="7.985" fill="none"/>
    </clipPath>
    <clipPath id="clip-path-25">
      <rect id="Rectangle_4233" data-name="Rectangle 4233" width="0.989" height="0.763" fill="none"/>
    </clipPath>
    <clipPath id="clip-path-29">
      <rect id="Rectangle_4237" data-name="Rectangle 4237" width="0.99" height="0.763" fill="none"/>
    </clipPath>
    <clipPath id="clip-path-33">
      <rect id="Rectangle_4241" data-name="Rectangle 4241" width="7.874" height="8.111" fill="none"/>
    </clipPath>
    <clipPath id="clip-path-34">
      <rect id="Rectangle_4243" data-name="Rectangle 4243" width="8.463" height="29.284" fill="none"/>
    </clipPath>
    <clipPath id="clip-path-35">
      <rect id="Rectangle_4244" data-name="Rectangle 4244" width="8.237" height="12.834" fill="none"/>
    </clipPath>
    <clipPath id="clip-path-36">
      <rect id="Rectangle_4247" data-name="Rectangle 4247" width="5.672" height="7.297" fill="none"/>
    </clipPath>
    <clipPath id="clip-path-37">
      <rect id="Rectangle_4248" data-name="Rectangle 4248" width="17.471" height="7.095" fill="none"/>
    </clipPath>
    <clipPath id="clip-path-38">
      <rect id="Rectangle_4249" data-name="Rectangle 4249" width="5.493" height="14.501" fill="none"/>
    </clipPath>
    <clipPath id="clip-path-39">
      <rect id="Rectangle_4250" data-name="Rectangle 4250" width="17.227" height="10.082" fill="none"/>
    </clipPath>
  </defs>
  <g id="Demo_vector" data-name="Demo vector" transform="translate(2963 10872.291)">
    <rect id="Rectangle_4190" data-name="Rectangle 4190" width="16.561" height="0.125" transform="translate(-2754.611 -10726.679)" fill="#ebebeb"/>
    <rect id="Rectangle_4191" data-name="Rectangle 4191" width="4.346" height="0.125" transform="translate(-2801.737 -10725.321)" fill="#ebebeb"/>
    <rect id="Rectangle_4192" data-name="Rectangle 4192" width="9.596" height="0.125" transform="translate(-2764.707 -10731.322)" fill="#ebebeb"/>
    <rect id="Rectangle_4193" data-name="Rectangle 4193" width="21.597" height="0.125" transform="translate(-2936.771 -10730.482)" fill="#ebebeb"/>
    <rect id="Rectangle_4194" data-name="Rectangle 4194" width="3.167" height="0.125" transform="translate(-2910.722 -10730.482)" fill="#ebebeb"/>
    <rect id="Rectangle_4195" data-name="Rectangle 4195" width="46.838" height="0.125" transform="translate(-2897.265 -10728.371)" fill="#ebebeb"/>
    <rect id="Rectangle_4196" data-name="Rectangle 4196" width="250" height="0.125" transform="translate(-2963 -10734.727)" fill="#ebebeb"/>
    <path id="Path_16025" data-name="Path 16025" d="M93.177,52.317a1.425,1.425,0,0,0-1.211,1.569v2.731h2.423V53.886a1.425,1.425,0,0,0-1.211-1.569m0,2.3a.51.51,0,1,1,.382-.494.449.449,0,0,1-.382.494" transform="translate(-3008.983 -10924.608)" fill="#e0e0e0"/>
    <path id="Path_16026" data-name="Path 16026" d="M192.794,52.317a1.425,1.425,0,0,0-1.212,1.569v2.731h2.423V53.886a1.425,1.425,0,0,0-1.212-1.569m0,2.3a.51.51,0,1,1,.382-.494.449.449,0,0,1-.382.494" transform="translate(-3058.792 -10924.608)" fill="#e0e0e0"/>
    <rect id="Rectangle_4197" data-name="Rectangle 4197" width="63.521" height="47.171" transform="translate(-2922.662 -10869.037)" fill="#ebebeb"/>
    <rect id="Rectangle_4198" data-name="Rectangle 4198" width="60.021" height="42.639" transform="translate(-2920.912 -10866.771)" fill="#fafafa"/>
    <rect id="Rectangle_4199" data-name="Rectangle 4199" width="65.873" height="3.583" transform="translate(-2923.838 -10823.465)" fill="#f0f0f0"/>
    <path id="Path_16027" data-name="Path 16027" d="M109.87,78.347H98.562v24.4H144.2v-24.4Zm25.476,12.028h-8.312V86.714h8.312Zm0,4.009h-8.312v-3.66h8.312Zm0,4.009h-8.312V94.732h8.312Zm-33.419-3.661H109.6v3.661h-7.673Zm0-4.009H109.6v3.66h-7.673Zm0-4.009H109.6v3.661h-7.673Zm0-4.009H109.6v3.66h-7.673Zm24.837,7.67h-8.312V86.714h8.312Zm0,4.009h-8.312v-3.66h8.312Zm-16.9-3.66h8.312v3.66H109.87Zm8.313-.348H109.87V86.714h8.312Zm-8.313,4.357h8.312v3.661H109.87Zm8.582,0h8.312v3.661h-8.312Zm8.313-8.367H109.87V82.7h16.895ZM98.831,78.7H109.6v3.66H98.831Zm0,4.009h2.827v3.66H98.831Zm0,4.009h2.827v3.661H98.831Zm0,4.009h2.827v3.66H98.831Zm0,4.009h2.827V98.4H98.831Zm2.827,7.67H98.831v-3.66h2.827Zm7.942,0h-7.673v-3.66H109.6Zm8.582,0H109.87v-3.66h8.312Zm8.582,0h-8.312v-3.66h8.312Zm8.581,0h-8.312v-3.66h8.312Zm8.582,0h-8.312v-3.66h8.312Zm0-4.009h-8.312V94.732h8.312Zm0-4.009h-8.312v-3.66h8.312Zm0-4.009h-8.312V86.714h8.312Zm0-4.01H127.034V82.7h16.894ZM127.033,82.36H109.87V78.7h34.058v3.66Z" transform="translate(-3012.281 -10937.623)" fill="#e0e0e0"/>
    <path id="Path_16028" data-name="Path 16028" d="M398.268,246.671s4.31-4.064,4.239-6.73-2.693,3.585-2.754,2.268,2.977-5.088,3.1-7.668-3.094,4.628-3.265,3.418,2.952-6.571,2.927-8.446-2.73,4.751-3.127,3.578,2.253-5.55,1.576-8.827-2.115,5.32-2.334,4.229,1.609-6.69.315-8.928-.928,6.056-1.37,5.091-.71-5.717-2.357-7.337.434,4.788-.071,5.113-2.856-4.447-3.488-3.541,3.337,6.029,3.374,7.254-3.2-2.046-3.494-.718,4.514,3.417,4.759,4.688-4-1-3.978.307,4.038,2.009,4.28,3.5-3.938-1.076-3.71.669,3.041,1.4,3.362,3.123-2.9-.242-2.781,1.393,3.343,1.815,3.679,3.061-3.076-.583-2.98.742,3.423,1.494,4.093,3.765" transform="translate(-3158.766 -11006.979)" fill="#e0e0e0"/>
    <path id="Path_16029" data-name="Path 16029" d="M401.541,258.8a51.287,51.287,0,0,0,.906-9.118,55.129,55.129,0,0,0-2.89-19.643c-.161-.458-.909-.294-.745.171a54.536,54.536,0,0,1,2.871,19.445,50.229,50.229,0,0,1-.871,8.915c-.1.477.629.711.729.229" transform="translate(-3162.394 -11013.335)" fill="#f0f0f0"/>
    <path id="Path_16030" data-name="Path 16030" d="M377.75,256.978s2.344-5.44,1.22-7.859-1.05,4.36-1.628,3.175.714-5.852-.192-8.271-1,5.475-1.641,4.432.1-7.2-.665-8.914-.62,5.444-1.451,4.525-.134-5.988-2.056-8.727.169,5.722-.465,4.808-1.176-6.78-3.252-8.32,1.551,5.926.762,5.216-2.921-4.967-5.073-5.8,2.3,4.223,1.964,4.721-4.386-2.948-4.607-1.867,5.455,4.211,5.975,5.32-3.754-.606-3.493.727,5.5,1.346,6.228,2.414-4.067.667-3.53,1.86,4.5.243,5.316,1.512-4.041.575-3.14,2.086,3.348.081,4.324,1.533-2.76.931-2,2.383,3.788.34,4.591,1.35-3.055.685-2.44,1.863,3.734.013,5.25,1.831" transform="translate(-3143.33 -11014.024)" fill="#f5f5f5"/>
    <path id="Path_16031" data-name="Path 16031" d="M384.826,267.948a51.3,51.3,0,0,0-2.785-8.729,55.129,55.129,0,0,0-10.446-16.884c-.33-.357-.951.091-.616.452a54.533,54.533,0,0,1,10.35,16.711,50.2,50.2,0,0,1,2.738,8.529c.1.477.859.4.76-.08" transform="translate(-3148.441 -11019.552)" fill="#e6e6e6"/>
    <path id="Path_16032" data-name="Path 16032" d="M412.026,254.709s-2.994-5.732-2.039-9.618,1.656,5.159,2.1,2.993-1.4-6.37.319-9.491.128,5.86,1.274,3.885-.191-7.007,1.4-8.917.509,4.14,1.274,3.185.573-5.415,1.784-6.433.127,4.268.764,3.248,2.1-5.669,4.14-6.242-1.338,2.866,0,2.548,4.4-1.019,4.65.383-6.433,2.93-7.2,4.65,3.058-1.338,3.758-.064-5.86,3.057-6.37,4.968,5.414-1.592,5.286.382-6.815,2.357-7.133,4.077,5.477-1.911,5.286-.191-5.988,3.057-6.37,4.9,4.267-1.72,4.395-.255-7.325,5.988-7.325,5.988" transform="translate(-3167.9 -11012.078)" fill="#ebebeb"/>
    <path id="Path_16033" data-name="Path 16033" d="M413.233,262.557a54.878,54.878,0,0,1,.931-7.923c.919-5.049,2.384-10.209,5.206-14.548a15.784,15.784,0,0,1,6.413-5.861c.445-.209.057-.869-.386-.66-4.82,2.265-7.711,7.09-9.542,11.9a55.665,55.665,0,0,0-3.146,13.986c-.109,1.034-.206,2.073-.241,3.112-.017.492.748.492.764,0" transform="translate(-3169.234 -11015.212)" fill="#f5f5f5"/>
    <path id="Path_16034" data-name="Path 16034" d="M403.958,285.489h-15.8s2.431,12.631,2.408,16.9a36.364,36.364,0,0,1-.624,4.077h12.229a36.365,36.365,0,0,1-.625-4.077c-.022-4.267,2.408-16.9,2.408-16.9" transform="translate(-3157.081 -11041.194)" fill="#ebebeb"/>
    <path id="Path_16035" data-name="Path 16035" d="M90.845,247.738H77.123a4.464,4.464,0,0,1-4.465-4.467V223.213a.815.815,0,0,1,1.631,0v20.061a2.834,2.834,0,0,0,2.834,2.834H90.845Z" transform="translate(-2999.329 -11009.648)" fill="#e0e0e0"/>
    <path id="Path_16036" data-name="Path 16036" d="M104.261,289.68V271l1.1-.345a2.964,2.964,0,0,0,2.074-2.827H97.079a2.964,2.964,0,0,0,2.073,2.827l1.1.345v18.68l-8.608,3.869v1.63l10.614-3.711,10.613,3.711v-1.63Z" transform="translate(-3008.821 -11032.363)" fill="#ebebeb"/>
    <path id="Path_16037" data-name="Path 16037" d="M109.932,263.943H82.859a2.937,2.937,0,1,1,0-5.874h27.072a2.937,2.937,0,0,1,0,5.874" transform="translate(-3002.961 -11027.484)" fill="#f0f0f0"/>
    <path id="Path_16038" data-name="Path 16038" d="M74.777,214.117l-1.461-20.889a2.937,2.937,0,0,1,5.86-.41l1.46,20.889a2.937,2.937,0,1,1-5.859.41" transform="translate(-2999.654 -10993.493)" fill="#f0f0f0"/>
    <path id="Path_16039" data-name="Path 16039" d="M91.641,322.966a1.857,1.857,0,1,1-1.857-1.857,1.857,1.857,0,0,1,1.857,1.857" transform="translate(-3006.964 -11059.004)" fill="#e0e0e0"/>
    <path id="Path_16040" data-name="Path 16040" d="M134.1,322.966a1.857,1.857,0,1,1-1.857-1.857,1.857,1.857,0,0,1,1.857,1.857" transform="translate(-3028.191 -11059.004)" fill="#e0e0e0"/>
    <rect id="Rectangle_4200" data-name="Rectangle 4200" width="0.818" height="63.793" transform="translate(-2758.94 -10868.41)" fill="#e0e0e0"/>
    <rect id="Rectangle_4201" data-name="Rectangle 4201" width="0.818" height="63.793" transform="translate(-2809.864 -10868.41)" fill="#e0e0e0"/>
    <path id="Path_16041" data-name="Path 16041" d="M298.637,65.238h58.151l1.227-2.863h-60.6Z" transform="translate(-3111.705 -10929.638)" fill="#f0f0f0"/>
    <path id="Path_16042" data-name="Path 16042" d="M298.637,73.1h58.151l1.227-2.863h-60.6Z" transform="translate(-3111.705 -10933.568)" fill="#f0f0f0"/>
    <path id="Path_16043" data-name="Path 16043" d="M298.637,80.961h58.151l1.227-2.863h-60.6Z" transform="translate(-3111.705 -10937.499)" fill="#f0f0f0"/>
    <path id="Path_16044" data-name="Path 16044" d="M298.637,88.824h58.151l1.227-2.863h-60.6Z" transform="translate(-3111.705 -10941.431)" fill="#f0f0f0"/>
    <path id="Path_16045" data-name="Path 16045" d="M298.637,96.686h58.151l1.227-2.863h-60.6Z" transform="translate(-3111.705 -10945.361)" fill="#f0f0f0"/>
    <path id="Path_16046" data-name="Path 16046" d="M298.637,104.547h58.151l1.227-2.863h-60.6Z" transform="translate(-3111.705 -10949.292)" fill="#f0f0f0"/>
    <path id="Path_16047" data-name="Path 16047" d="M298.637,112.41h58.151l1.227-2.863h-60.6Z" transform="translate(-3111.705 -10953.223)" fill="#f0f0f0"/>
    <path id="Path_16048" data-name="Path 16048" d="M298.637,120.271h58.151l1.227-2.863h-60.6Z" transform="translate(-3111.705 -10957.153)" fill="#f0f0f0"/>
    <path id="Path_16049" data-name="Path 16049" d="M298.637,128.133h58.151l1.227-2.863h-60.6Z" transform="translate(-3111.705 -10961.084)" fill="#f0f0f0"/>
    <path id="Path_16050" data-name="Path 16050" d="M298.637,136h58.151l1.227-2.863h-60.6Z" transform="translate(-3111.705 -10965.016)" fill="#f0f0f0"/>
    <path id="Path_16051" data-name="Path 16051" d="M298.637,143.857h58.151l1.227-2.863h-60.6Z" transform="translate(-3111.705 -10968.946)" fill="#f0f0f0"/>
    <path id="Path_16052" data-name="Path 16052" d="M298.637,151.719h58.151l1.227-2.863h-60.6Z" transform="translate(-3111.705 -10972.877)" fill="#f0f0f0"/>
    <path id="Path_16053" data-name="Path 16053" d="M298.637,159.581h58.151l1.227-2.863h-60.6Z" transform="translate(-3111.705 -10976.81)" fill="#f0f0f0"/>
    <path id="Path_16054" data-name="Path 16054" d="M298.637,167.443h58.151l1.227-2.863h-60.6Z" transform="translate(-3111.705 -10980.74)" fill="#f0f0f0"/>
    <path id="Path_16055" data-name="Path 16055" d="M298.637,175.3h58.151l1.227-2.863h-60.6Z" transform="translate(-3111.705 -10984.671)" fill="#f0f0f0"/>
    <path id="Path_16056" data-name="Path 16056" d="M298.637,183.167h58.151l1.227-2.863h-60.6Z" transform="translate(-3111.705 -10988.602)" fill="#f0f0f0"/>
    <rect id="Rectangle_4202" data-name="Rectangle 4202" width="60.605" height="1.636" transform="translate(-2814.296 -10805.435)" fill="#e0e0e0"/>
    <rect id="Rectangle_4203" data-name="Rectangle 4203" width="64.831" height="3.818" transform="translate(-2816.408 -10870.849)" fill="#e0e0e0"/>
    <path id="Path_16057" data-name="Path 16057" d="M420.855,108.478h0a.659.659,0,0,0,.659-.66V85.552a.66.66,0,1,0-1.319,0v22.266a.659.659,0,0,0,.66.66" transform="translate(-3173.098 -10940.896)" fill="#e0e0e0"/>
    <rect id="Rectangle_4204" data-name="Rectangle 4204" width="0.477" height="13.225" transform="translate(-2752.482 -10867.797)" fill="#e0e0e0"/>
    <path id="Path_16058" data-name="Path 16058" d="M250,351.777c0,3.127-43.4,5.661-96.945,5.661s-96.944-2.534-96.944-5.661,43.4-5.661,96.944-5.661S250,348.651,250,351.777" transform="translate(-2991.055 -11071.508)" fill="#f5f5f5"/>
    <path id="Path_16059" data-name="Path 16059" d="M175.017,73.148h-7.96a7.381,7.381,0,0,0-7.469,8.185l8.883,101.534a9.113,9.113,0,0,0,8.9,8.186h7.96Z" transform="translate(-3042.778 -10935.023)" fill="#263238"/>
    <path id="Path_16060" data-name="Path 16060" d="M181.719,191.053h69.755a7.38,7.38,0,0,0,7.469-8.185L250.061,81.333a9.112,9.112,0,0,0-8.9-8.185H171.4a7.381,7.381,0,0,0-7.469,8.185l8.883,101.534a9.112,9.112,0,0,0,8.9,8.185" transform="translate(-3044.952 -10935.023)" fill="#263238"/>
    <g id="Group_7389" data-name="Group 7389" transform="translate(-2881.049 -10861.876)" opacity="0.6">
      <g id="Group_7388" data-name="Group 7388">
        <g id="Group_7387" data-name="Group 7387" clip-path="url(#clip-path)">
          <path id="Path_16061" data-name="Path 16061" d="M181.719,191.053h69.755a7.38,7.38,0,0,0,7.469-8.185L250.061,81.333a9.112,9.112,0,0,0-8.9-8.185H171.4a7.381,7.381,0,0,0-7.469,8.185l8.883,101.534a9.112,9.112,0,0,0,8.9,8.185" transform="translate(-163.903 -73.148)" fill="#fff"/>
        </g>
      </g>
    </g>
    <path id="Path_16062" data-name="Path 16062" d="M258.975,191.052,250.092,89.517H169.678l8.883,101.535Z" transform="translate(-3047.839 -10943.208)" fill="#fff"/>
    <path id="Path_16063" data-name="Path 16063" d="M266.172,300.294a2.872,2.872,0,0,1-2.8-2.576,2.326,2.326,0,0,1,2.351-2.577,2.872,2.872,0,0,1,2.8,2.577,2.326,2.326,0,0,1-2.352,2.576m-.4-4.518A1.754,1.754,0,0,0,264,297.718a2.165,2.165,0,0,0,2.112,1.941,1.752,1.752,0,0,0,1.772-1.941,2.165,2.165,0,0,0-2.112-1.943" transform="translate(-3094.68 -11046.021)" fill="#fff"/>
    <path id="Path_16064" data-name="Path 16064" d="M317.1,103.336h-5.924l-.518-5.923h5.923Z" transform="translate(-3118.328 -10947.157)" fill="#263238"/>
    <path id="Path_16065" data-name="Path 16065" d="M196.94,103.336H180.017l-.518-5.923h16.924Z" transform="translate(-3052.749 -10947.157)" fill="#263238"/>
    <path id="Path_16066" data-name="Path 16066" d="M256.553,160.876h-71.5L181.8,123.644h71.5Z" transform="translate(-3053.897 -10960.272)" fill="#263238"/>
    <path id="Path_16067" data-name="Path 16067" d="M233.785,243.992H192.322l-3.126-35.73h41.463Z" transform="translate(-3057.598 -11002.581)" fill="#263238"/>
    <path id="Path_16068" data-name="Path 16068" d="M290.816,216.407H281.3l-.712-8.144h9.52Z" transform="translate(-3103.292 -11002.581)" fill="#263238"/>
    <path id="Path_16069" data-name="Path 16069" d="M315.686,211.013H305.267a1.531,1.531,0,0,1-1.5-1.375,1.24,1.24,0,0,1,1.255-1.375H315.44a1.531,1.531,0,0,1,1.5,1.375,1.24,1.24,0,0,1-1.255,1.375" transform="translate(-3114.883 -11002.582)" fill="#263238"/>
    <path id="Path_16070" data-name="Path 16070" d="M317.793,221.8H306.211a1.531,1.531,0,0,1-1.5-1.375,1.24,1.24,0,0,1,1.255-1.375h11.582a1.53,1.53,0,0,1,1.5,1.375,1.24,1.24,0,0,1-1.255,1.375" transform="translate(-3115.355 -11007.976)" fill="#263238"/>
    <path id="Path_16071" data-name="Path 16071" d="M306.1,232.59H284.2a1.53,1.53,0,0,1-1.495-1.375,1.24,1.24,0,0,1,1.254-1.375h21.9a1.531,1.531,0,0,1,1.5,1.375,1.24,1.24,0,0,1-1.255,1.375" transform="translate(-3104.351 -11013.369)" fill="#263238"/>
    <path id="Path_16072" data-name="Path 16072" d="M308.2,243.379H285.146a1.531,1.531,0,0,1-1.5-1.375,1.24,1.24,0,0,1,1.255-1.375H307.96a1.53,1.53,0,0,1,1.5,1.371,1.24,1.24,0,0,1-1.255,1.375" transform="translate(-3104.823 -11018.765)" fill="#263238"/>
    <path id="Path_16073" data-name="Path 16073" d="M306.187,254.168h-20.1a1.531,1.531,0,0,1-1.5-1.375,1.24,1.24,0,0,1,1.254-1.375h20.1a1.53,1.53,0,0,1,1.495,1.375,1.24,1.24,0,0,1-1.255,1.375" transform="translate(-3105.295 -11024.159)" fill="#263238"/>
    <path id="Path_16074" data-name="Path 16074" d="M310.092,264.957H287.033a1.531,1.531,0,0,1-1.5-1.375,1.24,1.24,0,0,1,1.255-1.375h23.059a1.53,1.53,0,0,1,1.5,1.375,1.24,1.24,0,0,1-1.255,1.375" transform="translate(-3105.766 -11029.554)" fill="#263238"/>
    <path id="Path_16075" data-name="Path 16075" d="M303.87,275.745H287.978a1.53,1.53,0,0,1-1.495-1.375,1.24,1.24,0,0,1,1.254-1.37H303.63a1.53,1.53,0,0,1,1.495,1.375,1.24,1.24,0,0,1-1.254,1.375" transform="translate(-3106.239 -11034.947)" fill="#263238"/>
    <g id="Group_7392" data-name="Group 7392" transform="translate(-2807.672 -10849.743)" opacity="0.9">
      <g id="Group_7391" data-name="Group 7391">
        <g id="Group_7390" data-name="Group 7390" clip-path="url(#clip-path-2)">
          <path id="Path_16076" data-name="Path 16076" d="M317.1,103.336h-5.924l-.518-5.923h5.923Z" transform="translate(-310.656 -97.413)" fill="#fff"/>
        </g>
      </g>
    </g>
    <g id="Group_7395" data-name="Group 7395" transform="translate(-2873.251 -10849.743)" opacity="0.9">
      <g id="Group_7394" data-name="Group 7394">
        <g id="Group_7393" data-name="Group 7393" clip-path="url(#clip-path-3)">
          <path id="Path_16077" data-name="Path 16077" d="M196.94,103.336H180.017l-.518-5.923h16.924Z" transform="translate(-179.498 -97.413)" fill="#fff"/>
        </g>
      </g>
    </g>
    <g id="Group_7398" data-name="Group 7398" transform="translate(-2872.104 -10836.628)" opacity="0.9">
      <g id="Group_7397" data-name="Group 7397">
        <g id="Group_7396" data-name="Group 7396" clip-path="url(#clip-path-4)">
          <path id="Path_16078" data-name="Path 16078" d="M256.553,160.876h-71.5L181.8,123.644h71.5Z" transform="translate(-181.793 -123.645)" fill="#fff"/>
        </g>
      </g>
    </g>
    <g id="Group_7401" data-name="Group 7401" transform="translate(-2868.402 -10794.318)" opacity="0.9">
      <g id="Group_7400" data-name="Group 7400">
        <g id="Group_7399" data-name="Group 7399" clip-path="url(#clip-path-5)">
          <path id="Path_16079" data-name="Path 16079" d="M233.785,243.992H192.322l-3.126-35.73h41.463Z" transform="translate(-189.196 -208.263)" fill="#fff"/>
        </g>
      </g>
    </g>
    <g id="Group_7404" data-name="Group 7404" transform="translate(-2822.708 -10794.318)" opacity="0.9">
      <g id="Group_7403" data-name="Group 7403">
        <g id="Group_7402" data-name="Group 7402" clip-path="url(#clip-path-6)">
          <path id="Path_16080" data-name="Path 16080" d="M290.816,216.407H281.3l-.712-8.144h9.52Z" transform="translate(-280.584 -208.263)" fill="#fff"/>
        </g>
      </g>
    </g>
    <g id="Group_7407" data-name="Group 7407" transform="translate(-2811.117 -10794.318)" opacity="0.9">
      <g id="Group_7406" data-name="Group 7406">
        <g id="Group_7405" data-name="Group 7405" clip-path="url(#clip-path-7)">
          <path id="Path_16081" data-name="Path 16081" d="M315.686,211.013H305.267a1.531,1.531,0,0,1-1.5-1.375,1.24,1.24,0,0,1,1.255-1.375H315.44a1.531,1.531,0,0,1,1.5,1.375,1.24,1.24,0,0,1-1.255,1.375" transform="translate(-303.766 -208.263)" fill="#fff"/>
        </g>
      </g>
    </g>
    <g id="Group_7410" data-name="Group 7410" transform="translate(-2810.645 -10788.924)" opacity="0.9">
      <g id="Group_7409" data-name="Group 7409">
        <g id="Group_7408" data-name="Group 7408" clip-path="url(#clip-path-8)">
          <path id="Path_16082" data-name="Path 16082" d="M317.793,221.8H306.211a1.531,1.531,0,0,1-1.5-1.375,1.24,1.24,0,0,1,1.255-1.375h11.582a1.53,1.53,0,0,1,1.5,1.375,1.24,1.24,0,0,1-1.255,1.375" transform="translate(-304.71 -219.051)" fill="#fff"/>
        </g>
      </g>
    </g>
    <g id="Group_7413" data-name="Group 7413" transform="translate(-2821.649 -10783.529)" opacity="0.9">
      <g id="Group_7412" data-name="Group 7412">
        <g id="Group_7411" data-name="Group 7411" clip-path="url(#clip-path-9)">
          <path id="Path_16083" data-name="Path 16083" d="M306.1,232.59H284.2a1.53,1.53,0,0,1-1.495-1.375,1.24,1.24,0,0,1,1.254-1.375h21.9a1.531,1.531,0,0,1,1.5,1.375,1.24,1.24,0,0,1-1.255,1.375" transform="translate(-282.702 -229.84)" fill="#fff"/>
        </g>
      </g>
    </g>
    <g id="Group_7416" data-name="Group 7416" transform="translate(-2821.177 -10778.136)" opacity="0.9">
      <g id="Group_7415" data-name="Group 7415">
        <g id="Group_7414" data-name="Group 7414" clip-path="url(#clip-path-10)">
          <path id="Path_16084" data-name="Path 16084" d="M308.2,243.379H285.146a1.531,1.531,0,0,1-1.5-1.375,1.24,1.24,0,0,1,1.255-1.375H307.96a1.53,1.53,0,0,1,1.5,1.371,1.24,1.24,0,0,1-1.255,1.375" transform="translate(-283.645 -240.629)" fill="#fff"/>
        </g>
      </g>
    </g>
    <g id="Group_7419" data-name="Group 7419" transform="translate(-2820.706 -10772.741)" opacity="0.9">
      <g id="Group_7418" data-name="Group 7418">
        <g id="Group_7417" data-name="Group 7417" clip-path="url(#clip-path-11)">
          <path id="Path_16085" data-name="Path 16085" d="M306.187,254.168h-20.1a1.531,1.531,0,0,1-1.5-1.375,1.24,1.24,0,0,1,1.254-1.375h20.1a1.53,1.53,0,0,1,1.495,1.375,1.24,1.24,0,0,1-1.255,1.375" transform="translate(-284.589 -251.418)" fill="#fff"/>
        </g>
      </g>
    </g>
    <g id="Group_7422" data-name="Group 7422" transform="translate(-2820.233 -10767.348)" opacity="0.9">
      <g id="Group_7421" data-name="Group 7421">
        <g id="Group_7420" data-name="Group 7420" clip-path="url(#clip-path-12)">
          <path id="Path_16086" data-name="Path 16086" d="M310.092,264.957H287.033a1.531,1.531,0,0,1-1.5-1.375,1.24,1.24,0,0,1,1.255-1.375h23.059a1.53,1.53,0,0,1,1.5,1.375,1.24,1.24,0,0,1-1.255,1.375" transform="translate(-285.533 -262.206)" fill="#fff"/>
        </g>
      </g>
    </g>
    <g id="Group_7425" data-name="Group 7425" transform="translate(-2819.761 -10761.952)" opacity="0.9">
      <g id="Group_7424" data-name="Group 7424">
        <g id="Group_7423" data-name="Group 7423" clip-path="url(#clip-path-13)">
          <path id="Path_16087" data-name="Path 16087" d="M303.87,275.745H287.978a1.53,1.53,0,0,1-1.495-1.375,1.24,1.24,0,0,1,1.254-1.37H303.63a1.53,1.53,0,0,1,1.495,1.375,1.24,1.24,0,0,1-1.254,1.375" transform="translate(-286.477 -272.995)" fill="#fff"/>
        </g>
      </g>
    </g>
    <g id="Group_7428" data-name="Group 7428" transform="translate(-2865.402 -10820.226)" opacity="0.2">
      <g id="Group_7427" data-name="Group 7427">
        <g id="Group_7426" data-name="Group 7426" clip-path="url(#clip-path-14)">
          <path id="Path_16088" data-name="Path 16088" d="M250.274,175.839h-44.5a10.793,10.793,0,0,1-10.543-9.7,8.742,8.742,0,0,1,8.847-9.7h44.5a10.793,10.793,0,0,1,10.543,9.7,8.742,8.742,0,0,1-8.847,9.7" transform="translate(-195.197 -156.449)"/>
        </g>
      </g>
    </g>
    <path id="Path_16089" data-name="Path 16089" d="M249.908,171.639h-44.5a10.793,10.793,0,0,1-10.543-9.7,8.742,8.742,0,0,1,8.846-9.695h44.5a10.793,10.793,0,0,1,10.544,9.7,8.742,8.742,0,0,1-8.847,9.7" transform="translate(-3060.416 -10974.574)" fill="#ef4626"/>
    <path id="Path_16090" data-name="Path 16090" d="M229.927,171.5a2.5,2.5,0,0,1-.778-.351l.266-.732a2.473,2.473,0,0,0,.669.318,2.51,2.51,0,0,0,.755.12,1.128,1.128,0,0,0,.6-.123.338.338,0,0,0,.169-.327.349.349,0,0,0-.139-.249,1,1,0,0,0-.314-.159q-.188-.06-.507-.132a7.221,7.221,0,0,1-.806-.228,1.438,1.438,0,0,1-.557-.366,1.072,1.072,0,0,1-.278-.672,1.1,1.1,0,0,1,.14-.663,1.177,1.177,0,0,1,.556-.471,2.325,2.325,0,0,1,.96-.174,3.331,3.331,0,0,1,.794.1,2.537,2.537,0,0,1,.7.276l-.235.738a2.5,2.5,0,0,0-1.193-.33,1.032,1.032,0,0,0-.592.132.366.366,0,0,0-.165.348.38.38,0,0,0,.253.321,3.792,3.792,0,0,0,.705.207,7.307,7.307,0,0,1,.806.228,1.464,1.464,0,0,1,.557.36,1.046,1.046,0,0,1,.277.666,1.077,1.077,0,0,1-.143.657,1.192,1.192,0,0,1-.562.471,2.349,2.349,0,0,1-.963.174,3.557,3.557,0,0,1-.975-.135" transform="translate(-3077.502 -10982.098)" fill="#fff"/>
    <path id="Path_16091" data-name="Path 16091" d="M237.292,168.23h-1.344l-.07-.792h3.661l.069.792h-1.344l.3,3.408h-.972Z" transform="translate(-3080.939 -10982.169)" fill="#fff"/>
    <path id="Path_16092" data-name="Path 16092" d="M246.694,170.739h-1.95l-.294.9h-1l1.5-4.2h.96l2.245,4.2h-1.02Zm-.37-.739-.807-1.608L244.992,170Z" transform="translate(-3084.728 -10982.169)" fill="#fff"/>
    <path id="Path_16093" data-name="Path 16093" d="M256.058,171.638l-.913-1.169h-.894l.1,1.169h-.972l-.368-4.2h1.818a2.457,2.457,0,0,1,.985.186,1.628,1.628,0,0,1,.679.529,1.568,1.568,0,0,1,.293.81,1.344,1.344,0,0,1-.154.807,1.26,1.26,0,0,1-.594.519l1.06,1.35Zm-.527-3.219a1.094,1.094,0,0,0-.683-.189h-.792l.128,1.465h.792a.939.939,0,0,0,.649-.193.615.615,0,0,0,.181-.539.735.735,0,0,0-.275-.544" transform="translate(-3089.507 -10982.169)" fill="#fff"/>
    <path id="Path_16094" data-name="Path 16094" d="M262.18,168.23h-1.344l-.07-.792h3.661l.069.792h-1.344l.3,3.408h-.973Z" transform="translate(-3093.383 -10982.169)" fill="#fff"/>
    <path id="Path_16095" data-name="Path 16095" d="M272.527,167.438h1.908a2.83,2.83,0,0,1,1.232.261,2.182,2.182,0,0,1,1.268,1.839,1.956,1.956,0,0,1-.195,1.1,1.719,1.719,0,0,1-.751.734,2.533,2.533,0,0,1-1.186.262h-1.908Zm2.158,3.4a1.3,1.3,0,0,0,.974-.351,1.147,1.147,0,0,0,.292-.951,1.359,1.359,0,0,0-.458-.951,1.524,1.524,0,0,0-1.036-.351h-.888l.228,2.6Z" transform="translate(-3099.263 -10982.169)" fill="#fff"/>
    <path id="Path_16096" data-name="Path 16096" d="M285.991,170.859l.068.78h-3.252l-.367-4.2h3.174l.068.781h-2.208l.08.912h1.95l.066.756h-1.95l.085.972Z" transform="translate(-3104.22 -10982.169)" fill="#fff"/>
    <path id="Path_16097" data-name="Path 16097" d="M294.681,171.639l-.227-2.52L293.4,171.2h-.438l-1.407-2.022.216,2.466h-.912l-.367-4.2h.8l1.8,2.61,1.32-2.61h.8l.379,4.2Z" transform="translate(-3108.246 -10982.169)" fill="#fff"/>
    <path id="Path_16098" data-name="Path 16098" d="M303.065,171.357a2.383,2.383,0,0,1-.89-.777,2.285,2.285,0,0,1-.4-1.113,2.009,2.009,0,0,1,.2-1.113,1.846,1.846,0,0,1,.754-.777,2.314,2.314,0,0,1,1.154-.281,2.587,2.587,0,0,1,1.2.281,2.415,2.415,0,0,1,.89.777,2.268,2.268,0,0,1,.4,1.113,2,2,0,0,1-.2,1.113,1.868,1.868,0,0,1-.754.777,2.292,2.292,0,0,1-1.151.281,2.6,2.6,0,0,1-1.2-.281m1.789-.717a1.085,1.085,0,0,0,.429-.477,1.328,1.328,0,0,0,.11-.7,1.5,1.5,0,0,0-.232-.7,1.392,1.392,0,0,0-.513-.477,1.411,1.411,0,0,0-.687-.171,1.247,1.247,0,0,0-.657.171,1.077,1.077,0,0,0-.429.477,1.327,1.327,0,0,0-.11.7,1.5,1.5,0,0,0,.231.7,1.409,1.409,0,0,0,1.2.648,1.252,1.252,0,0,0,.657-.171" transform="translate(-3113.885 -10982.098)" fill="#fff"/>
    <path id="Path_16099" data-name="Path 16099" d="M206.6,170.842l-.587-6.7a.74.74,0,0,1,1.143-.685l5.929,3.351a.8.8,0,0,1,.119,1.368l-5.342,3.35a.858.858,0,0,1-1.263-.684" transform="translate(-3066.004 -10980.121)" fill="#fff"/>
    <path id="Path_16100" data-name="Path 16100" d="M371.609,122.624q.215-.224.428-.462c-.779-.912-.868-2.337-.512-4.72.825-5.527-9.824-13.214-12.265-5.79-.348,1.058-8.468,2.363-4.471,9.015-.214-1.252-.335-3.252.8-4.215a6.383,6.383,0,0,0,.117,5.585c2.142,4.025,4.553,2.892,4.924,4.771a12.774,12.774,0,0,0,7.345-1.421,2.168,2.168,0,0,1,.163-1.933,2.475,2.475,0,0,0,.5,1.561,14.268,14.268,0,0,0,2.393-1.82,4.242,4.242,0,0,1-1.119-3.447c.257,1.868,1.075,2.593,1.7,2.876" transform="translate(-3139.843 -10952.742)" fill="#263238"/>
    <path id="Path_16101" data-name="Path 16101" d="M361.608,344.589h-3.592l.184-8.319h3.592Z" transform="translate(-3142.008 -11066.585)" fill="#b55b52"/>
    <g id="Group_7431" data-name="Group 7431" transform="translate(-2783.903 -10730.313)" opacity="0.2">
      <g id="Group_7430" data-name="Group 7430">
        <g id="Group_7429" data-name="Group 7429" clip-path="url(#clip-path-15)">
          <path id="Path_16102" data-name="Path 16102" d="M358.289,336.275l-.1,4.288h3.593l.1-4.288Z" transform="translate(-358.194 -336.275)"/>
        </g>
      </g>
    </g>
    <path id="Path_16103" data-name="Path 16103" d="M359.37,191.711s-1.41,29.041-1.733,38.712c-.306,9.168-.809,36.641-.809,36.641h4.858s3.889-27.312,4.9-36.421c1.108-9.928,3.515-39.706,3.515-39.706Z" transform="translate(-3141.414 -10993.919)" fill="#ef4626"/>
    <g id="Group_7434" data-name="Group 7434" transform="translate(-2777.172 -10802.982)" opacity="0.2">
      <g id="Group_7433" data-name="Group 7433">
        <g id="Group_7432" data-name="Group 7432" clip-path="url(#clip-path-16)">
          <path id="Path_16104" data-name="Path 16104" d="M377.52,190.936l-2.249.163a16.463,16.463,0,0,0-1.111,2.306c-4,9.928-2.588,24.227-.059,36.357,1.145-10.691,3.419-38.825,3.419-38.825" transform="translate(-371.656 -190.936)"/>
        </g>
      </g>
    </g>
    <path id="Path_16105" data-name="Path 16105" d="M350.643,348.825l4,.534a.284.284,0,0,1,.252.281l.033,3.225a.577.577,0,0,1-.655.557c-1.391-.21-2.052-.382-3.811-.617-1.082-.145-4.206-.447-5.7-.646-1.461-.2-1.376-1.688-.736-1.739a14.393,14.393,0,0,0,5.994-1.457.937.937,0,0,1,.624-.139" transform="translate(-3134.793 -11072.858)" fill="#263238"/>
    <path id="Path_16106" data-name="Path 16106" d="M353.915,348.726a1.349,1.349,0,0,1-.834-.335.471.471,0,0,1-.1-.431.273.273,0,0,1,.173-.2c.467-.181,1.791.734,1.94.838a.085.085,0,0,1-.044.155,6.083,6.083,0,0,1-1.138-.022m-.536-.822a.338.338,0,0,0-.161.01.1.1,0,0,0-.068.084.3.3,0,0,0,.061.283,2.294,2.294,0,0,0,1.578.31,4.633,4.633,0,0,0-1.41-.686" transform="translate(-3139.484 -11072.315)" fill="#263238"/>
    <path id="Path_16107" data-name="Path 16107" d="M356.04,348.032a.086.086,0,0,1-.034-.012c-.4-.248-1.136-1.129-1.016-1.523.028-.093.112-.2.349-.2a.615.615,0,0,1,.447.208,2.4,2.4,0,0,1,.35,1.443.086.086,0,0,1-.046.071.085.085,0,0,1-.051.009m-.655-1.557h-.051c-.156-.005-.175.055-.181.075-.072.237.417.917.815,1.237a1.973,1.973,0,0,0-.308-1.159.443.443,0,0,0-.276-.149" transform="translate(-3140.489 -11071.601)" fill="#263238"/>
    <path id="Path_16108" data-name="Path 16108" d="M401.422,343.738H397.83l-1.568-8.318h3.592Z" transform="translate(-3161.131 -11066.16)" fill="#b55b52"/>
    <g id="Group_7437" data-name="Group 7437" transform="translate(-2764.867 -10730.738)" opacity="0.2">
      <g id="Group_7436" data-name="Group 7436">
        <g id="Group_7435" data-name="Group 7435" clip-path="url(#clip-path-17)">
          <path id="Path_16109" data-name="Path 16109" d="M396.265,335.424l.807,4.288h3.593l-.807-4.288Z" transform="translate(-396.265 -335.424)"/>
        </g>
      </g>
    </g>
    <path id="Path_16110" data-name="Path 16110" d="M369.529,190.861s3.427,29.041,5.139,38.712c1.623,9.168,8.178,36.64,8.178,36.64H387.7s-3.135-27.312-4.035-36.421c-.509-5.154-.561-14.928-.587-20.369-.012-2.33.264-6.9-.882-10.547-1.276-4.06-2.522-8.789-2.522-8.789Z" transform="translate(-3147.764 -10993.493)" fill="#ef4626"/>
    <g id="Group_7440" data-name="Group 7440" transform="translate(-2765.423 -10729.588)" opacity="0.2">
      <g id="Group_7439" data-name="Group 7439">
        <g id="Group_7438" data-name="Group 7438" clip-path="url(#clip-path-18)">
          <path id="Path_16111" data-name="Path 16111" d="M395.59,339.738h4.894c-.042-.365-.122-1.06-.231-2.014l-5.1.179c.2.862.354,1.494.436,1.835" transform="translate(-395.154 -337.724)"/>
        </g>
      </g>
    </g>
    <path id="Path_16112" data-name="Path 16112" d="M354.379,148.492s-1.663.725,3.284,21.5l14.55-1.057c-.674-5.9-.947-9.556,1-21.915a43.08,43.08,0,0,0-6.238-.365,46.4,46.4,0,0,0-6.607.48c-2.819.465-5.989,1.358-5.989,1.358" transform="translate(-3140.055 -10971.771)" fill="#263238"/>
    <path id="Path_16114" data-name="Path 16114" d="M371.526,131.878c-.262,2.156-.395,6.081,1.2,7.392,0,0-.424,2.2-4.375,2.486-4.343.315-2.232-2.005-2.232-2.005,2.33-.739,2.14-2.493,1.607-4.115Z" transform="translate(-3145.801 -10964.389)" fill="#b55b52"/>
    <g id="Group_7446" data-name="Group 7446" transform="translate(-2778.078 -10830.978)" opacity="0.2">
      <g id="Group_7445" data-name="Group 7445">
        <g id="Group_7444" data-name="Group 7444" clip-path="url(#clip-path-19)">
          <path id="Path_16115" data-name="Path 16115" d="M372.1,134.945l-2.251,2.222a6.863,6.863,0,0,1,.289,1.158,2.931,2.931,0,0,0,2.1-2.236,3.194,3.194,0,0,0-.133-1.144" transform="translate(-369.845 -134.945)"/>
        </g>
      </g>
    </g>
    <path id="Path_16116" data-name="Path 16116" d="M371.675,118.669c-.814,3.471-1.085,4.957-3.164,6.455-3.128,2.254-7.212.494-7.452-3.15-.215-3.28,1.152-8.4,4.824-9.215a4.862,4.862,0,0,1,5.791,5.91" transform="translate(-3143.519 -10954.769)" fill="#b55b52"/>
    <path id="Path_16117" data-name="Path 16117" d="M365.517,112.37c-1.168,1.625,10.2,7.671,9.108,3.85s-6.058-8.092-9.108-3.85" transform="translate(-3145.716 -10953.754)" fill="#263238"/>
    <path id="Path_16118" data-name="Path 16118" d="M377.149,121.739c-.276,1.69,1.956,3.69,1.956,3.69s2.861-2.11,1.06-3.237a3.067,3.067,0,0,0-3.016-.453" transform="translate(-3151.563 -10959.219)" fill="#263238"/>
    <path id="Path_16119" data-name="Path 16119" d="M369.657,124.076c-.049.285-.24.492-.426.46s-.3-.289-.25-.575.24-.491.427-.46.3.29.249.575" transform="translate(-3147.485 -10960.199)" fill="#263238"/>
    <path id="Path_16120" data-name="Path 16120" d="M363.2,122.974c-.048.285-.24.492-.426.46s-.3-.289-.25-.575.24-.491.426-.46.3.29.25.575" transform="translate(-3144.257 -10959.647)" fill="#263238"/>
    <path id="Path_16121" data-name="Path 16121" d="M362.9,122.147l-.652-.315s.26.6.652.315" transform="translate(-3144.123 -10959.365)" fill="#263238"/>
    <path id="Path_16122" data-name="Path 16122" d="M364.835,124.92a7.729,7.729,0,0,1-1.329,1.649,1.246,1.246,0,0,0,.986.365Z" transform="translate(-3144.753 -10960.91)" fill="#a02724"/>
    <path id="Path_16123" data-name="Path 16123" d="M367.713,130.912a2.707,2.707,0,0,1-.426-.04.084.084,0,0,1-.07-.1.087.087,0,0,1,.1-.07,2.285,2.285,0,0,0,2-.569.085.085,0,0,1,.125.115,2.384,2.384,0,0,1-1.723.662" transform="translate(-3146.608 -10963.504)" fill="#263238"/>
    <path id="Path_16124" data-name="Path 16124" d="M380.409,129.64a2.607,2.607,0,0,1-1.583,1.206c-.885.226-1.308-.57-1.046-1.4.237-.743.982-1.755,1.862-1.616a1.17,1.17,0,0,1,.767,1.8" transform="translate(-3151.851 -10962.361)" fill="#b55b52"/>
    <path id="Path_16125" data-name="Path 16125" d="M371.681,122.252a.171.171,0,0,1-.16-.12,2.008,2.008,0,0,0-1.2-1.077.17.17,0,1,1,.105-.324,2.327,2.327,0,0,1,1.422,1.3.171.171,0,0,1-.112.213.163.163,0,0,1-.053.007" transform="translate(-3148.101 -10958.812)" fill="#263238"/>
    <path id="Path_16126" data-name="Path 16126" d="M362.29,119.677a.17.17,0,0,1-.082-.318,1.689,1.689,0,0,1,1.549-.1.17.17,0,0,1-.154.3,1.349,1.349,0,0,0-1.227.1.171.171,0,0,1-.087.022" transform="translate(-3144.061 -10958.008)" fill="#263238"/>
    <path id="Path_16127" data-name="Path 16127" d="M392.21,350.313h4.035a.285.285,0,0,1,.287.246l.46,3.192a.577.577,0,0,1-.576.639c-1.407-.024-2.085-.107-3.859-.107-1.092,0-4.228.113-5.735.113-1.475,0-1.588-1.49-.961-1.626a14.389,14.389,0,0,0,5.749-2.237.936.936,0,0,1,.6-.221" transform="translate(-3155.75 -11073.606)" fill="#263238"/>
    <path id="Path_16128" data-name="Path 16128" d="M395.194,350.659a1.348,1.348,0,0,1-.871-.221.471.471,0,0,1-.154-.414.276.276,0,0,1,.145-.227c.44-.241,1.872.49,2.034.574a.085.085,0,0,1,.045.088.087.087,0,0,1-.068.071,6.122,6.122,0,0,1-1.131.129m-.64-.743a.335.335,0,0,0-.159.031.1.1,0,0,0-.056.092.3.3,0,0,0,.1.272,2.3,2.3,0,0,0,1.606.1,4.628,4.628,0,0,0-1.488-.493" transform="translate(-3160.083 -11073.324)" fill="#263238"/>
    <path id="Path_16129" data-name="Path 16129" d="M397.2,349.688a.078.078,0,0,1-.035-.007c-.428-.194-1.276-.968-1.209-1.375.015-.1.084-.216.319-.24a.617.617,0,0,1,.472.147,2.4,2.4,0,0,1,.538,1.384.085.085,0,0,1-.036.076.083.083,0,0,1-.049.016m-.856-1.456h-.051c-.155.016-.165.078-.169.1-.04.244.535.853.971,1.118a1.972,1.972,0,0,0-.458-1.108.444.444,0,0,0-.293-.111" transform="translate(-3160.978 -11072.48)" fill="#263238"/>
    <path id="Path_16130" data-name="Path 16130" d="M369.353,123.249l-.652-.315s.26.6.652.315" transform="translate(-3147.351 -10959.917)" fill="#263238"/>
    <path id="Path_16131" data-name="Path 16131" d="M352.69,158.879c-.232.9-.489,1.868-.69,2.806-.224.94-.419,1.882-.558,2.8a12.723,12.723,0,0,0-.192,2.561,2.972,2.972,0,0,0,.049.409c.015.09.037.092-.078-.018-.164-.128-.111-.053,0-.014a3.255,3.255,0,0,0,.484.143,16.292,16.292,0,0,0,2.711.294c.963.049,1.946.045,2.935.052s1.983-.023,2.979-.057c1-.015,2-.063,2.99-.092l.251,1.84a60.608,60.608,0,0,1-6.048,1.034c-1.021.132-2.049.217-3.1.271a18.3,18.3,0,0,1-3.306-.1,6.348,6.348,0,0,1-.979-.221,3.268,3.268,0,0,1-1.307-.741,3.346,3.346,0,0,1-.815-1.318,5.751,5.751,0,0,1-.257-1.066,11,11,0,0,1-.087-1.808c.013-.568.055-1.114.119-1.651a36.1,36.1,0,0,1,1.3-6.184Z" transform="translate(-3136.835 -10977.362)" fill="#b55b52"/>
    <path id="Path_16132" data-name="Path 16132" d="M352.078,149.851c-1.511.226-3.156,6.183-3.156,6.183l3.779,3.172s4.512-5.721,3.543-7.454c-1.009-1.807-1.961-2.229-4.166-1.9" transform="translate(-3137.461 -10973.324)" fill="#0f1316"/>
    <path id="Path_16134" data-name="Path 16134" d="M364.762,145.32a4.167,4.167,0,0,0,1.55-1.815.73.73,0,0,1,.8-.474,5.94,5.94,0,0,0,3.306-.486.722.722,0,0,1,.977.417,2.6,2.6,0,0,0,1.3,1.6s-1.237,3.4-6,3.194-1.928-2.438-1.928-2.438" transform="translate(-3144.961 -10969.691)" fill="#0f1316"/>
    <g id="Group_7455" data-name="Group 7455" transform="translate(-2786.001 -10819.557)" opacity="0.2">
      <g id="Group_7454" data-name="Group 7454">
        <g id="Group_7453" data-name="Group 7453" clip-path="url(#clip-path-20)">
          <path id="Path_16136" data-name="Path 16136" d="M354.922,162.958c-.395-2.238-.624-3.917-.746-5.171l-.178,4.4Z" transform="translate(-353.998 -157.787)"/>
        </g>
      </g>
    </g>
    <path id="Path_16137" data-name="Path 16137" d="M369.53,194.995a.457.457,0,1,1-.457-.457.457.457,0,0,1,.457.457" transform="translate(-3147.308 -10995.719)" fill="#407bff"/>
    <path id="Path_16138" data-name="Path 16138" d="M370.741,204.05a.457.457,0,1,1-.457-.457.457.457,0,0,1,.457.457" transform="translate(-3147.914 -11000.247)" fill="#407bff"/>
    <g id="Group_7458" data-name="Group 7458" transform="translate(-2778.692 -10801.18)" opacity="0.5">
      <g id="Group_7457" data-name="Group 7457">
        <g id="Group_7456" data-name="Group 7456" clip-path="url(#clip-path-21)">
          <path id="Path_16139" data-name="Path 16139" d="M369.53,194.995a.457.457,0,1,1-.457-.457.457.457,0,0,1,.457.457" transform="translate(-368.616 -194.538)" fill="#fff"/>
          <path id="Path_16140" data-name="Path 16140" d="M370.741,204.05a.457.457,0,1,1-.457-.457.457.457,0,0,1,.457.457" transform="translate(-369.222 -199.066)" fill="#fff"/>
        </g>
      </g>
    </g>
    <g id="Group_7461" data-name="Group 7461" transform="translate(-2784.57 -10729.146)" opacity="0.2">
      <g id="Group_7460" data-name="Group 7460">
        <g id="Group_7459" data-name="Group 7459" clip-path="url(#clip-path-22)">
          <path id="Path_16141" data-name="Path 16141" d="M356.859,340.051h4.962c.052-.372.121-.859.2-1.445h-5.139c-.011.587-.02,1.073-.027,1.445" transform="translate(-356.859 -338.606)"/>
        </g>
      </g>
    </g>
    <path id="Path_16142" data-name="Path 16142" d="M361.422,341.5h-5.7l-.227-1.818,6.406-.222Z" transform="translate(-3140.748 -11068.179)" fill="#e20612"/>
    <path id="Path_16143" data-name="Path 16143" d="M358.239,136.083l-.568.2a.133.133,0,0,1-.158-.2l.335-.5,4.9-3.8a.279.279,0,0,1,.391.025l.073.094a.278.278,0,0,1-.073.385Z" transform="translate(-3141.742 -10964.306)" fill="#407bff"/>
    <g id="Group_7464" data-name="Group 7464" transform="translate(-2784.258 -10832.595)" opacity="0.7">
      <g id="Group_7463" data-name="Group 7463">
        <g id="Group_7462" data-name="Group 7462" clip-path="url(#clip-path-23)">
          <path id="Path_16144" data-name="Path 16144" d="M358.239,136.083l-.568.2a.133.133,0,0,1-.158-.2l.335-.5,4.9-3.8a.279.279,0,0,1,.391.025l.073.094a.278.278,0,0,1-.073.385Z" transform="translate(-357.484 -131.711)" fill="#fff"/>
        </g>
      </g>
    </g>
    <path id="Path_16145" data-name="Path 16145" d="M367.439,143.688l-2.152-3.824-1.428,3.362s1.424,1.814,2.9,1.555Z" transform="translate(-3144.929 -10968.382)" fill="#b55b52"/>
    <path id="Path_16146" data-name="Path 16146" d="M361.184,137.029l-1,2.547,1.837,2.232,1.429-3.362Z" transform="translate(-3143.091 -10966.964)" fill="#b55b52"/>
    <path id="Path_16147" data-name="Path 16147" d="M386.9,181.134l-4.359-1.376a.508.508,0,0,1-.332-.637l1.767-5.594a.507.507,0,0,1,.636-.332l4.359,1.377a.507.507,0,0,1,.331.636l-1.766,5.6a.507.507,0,0,1-.637.331" transform="translate(-3154.092 -10985.036)" fill="#407bff"/>
    <path id="Path_16148" data-name="Path 16148" d="M386.7,180.513l-4.359-1.376a.508.508,0,0,1-.331-.637l1.766-5.6a.508.508,0,0,1,.636-.331l4.36,1.376a.507.507,0,0,1,.331.637l-1.766,5.6a.507.507,0,0,1-.636.331" transform="translate(-3153.994 -10984.726)" fill="#407bff"/>
    <g id="Group_7467" data-name="Group 7467" transform="translate(-2772.006 -10812.175)" opacity="0.8">
      <g id="Group_7466" data-name="Group 7466">
        <g id="Group_7465" data-name="Group 7465" clip-path="url(#clip-path-24)">
          <path id="Path_16149" data-name="Path 16149" d="M386.7,180.513l-4.359-1.376a.508.508,0,0,1-.331-.637l1.766-5.6a.508.508,0,0,1,.636-.331l4.36,1.376a.507.507,0,0,1,.331.637l-1.766,5.6a.507.507,0,0,1-.636.331" transform="translate(-381.988 -172.551)" fill="#fff"/>
        </g>
      </g>
    </g>
    <path id="Path_16150" data-name="Path 16150" d="M386.518,179.785l-4.359-1.376a.506.506,0,0,1-.331-.637l1.765-5.595a.508.508,0,0,1,.637-.331l4.36,1.376a.507.507,0,0,1,.331.636l-1.766,5.6a.507.507,0,0,1-.636.331" transform="translate(-3153.902 -10984.361)" fill="#263238"/>
    <rect id="Rectangle_4232" data-name="Rectangle 4232" width="1.554" height="3.409" transform="translate(-2770.048 -10809.652) rotate(-72.477)" fill="#fff"/>
    <path id="Path_16151" data-name="Path 16151" d="M384.53,173.272a.4.4,0,1,1,.6-.214l-.113-.036c.043-.135-.09-.3-.288-.365a.35.35,0,0,0-.447.133c-.047.133.09.3.289.365Z" transform="translate(-3155.076 -10984.705)" fill="#263238"/>
    <g id="Group_7470" data-name="Group 7470" transform="translate(-2770.924 -10812.195)" opacity="0.6">
      <g id="Group_7469" data-name="Group 7469">
        <g id="Group_7468" data-name="Group 7468" clip-path="url(#clip-path-25)">
          <path id="Path_16152" data-name="Path 16152" d="M384.53,173.272a.4.4,0,1,1,.6-.214l-.113-.036c.043-.135-.09-.3-.288-.365a.35.35,0,0,0-.447.133c-.047.133.09.3.289.365Z" transform="translate(-384.151 -172.509)" fill="#fff"/>
        </g>
      </g>
    </g>
    <path id="Path_16153" data-name="Path 16153" d="M384.091,174.663a.4.4,0,1,1,.6-.215l-.113-.036c.043-.135-.089-.3-.289-.365a.348.348,0,0,0-.446.133c-.046.133.09.3.289.365Z" transform="translate(-3154.856 -10985.399)" fill="#263238"/>
    <g id="Group_7473" data-name="Group 7473" transform="translate(-2771.144 -10811.5)" opacity="0.6">
      <g id="Group_7472" data-name="Group 7472">
        <g id="Group_7471" data-name="Group 7471" clip-path="url(#clip-path-25)">
          <path id="Path_16154" data-name="Path 16154" d="M384.091,174.663a.4.4,0,1,1,.6-.215l-.113-.036c.043-.135-.089-.3-.289-.365a.348.348,0,0,0-.446.133c-.046.133.09.3.289.365Z" transform="translate(-383.712 -173.9)" fill="#fff"/>
        </g>
      </g>
    </g>
    <path id="Path_16155" data-name="Path 16155" d="M383.651,176.055a.4.4,0,1,1,.6-.215l-.113-.036c.043-.135-.09-.3-.289-.365a.347.347,0,0,0-.446.134c-.046.134.09.3.289.365Z" transform="translate(-3154.636 -10986.096)" fill="#263238"/>
    <g id="Group_7476" data-name="Group 7476" transform="translate(-2771.364 -10810.805)" opacity="0.6">
      <g id="Group_7475" data-name="Group 7475">
        <g id="Group_7474" data-name="Group 7474" clip-path="url(#clip-path-25)">
          <path id="Path_16156" data-name="Path 16156" d="M383.651,176.055a.4.4,0,1,1,.6-.215l-.113-.036c.043-.135-.09-.3-.289-.365a.347.347,0,0,0-.446.134c-.046.134.09.3.289.365Z" transform="translate(-383.273 -175.291)" fill="#fff"/>
        </g>
      </g>
    </g>
    <path id="Path_16157" data-name="Path 16157" d="M383.212,177.445a.4.4,0,1,1,.231-.732.453.453,0,0,1,.365.518l-.113-.035c.042-.135-.09-.3-.288-.365a.351.351,0,0,0-.447.132c-.047.132.09.3.289.365Z" transform="translate(-3154.417 -10986.791)" fill="#263238"/>
    <g id="Group_7479" data-name="Group 7479" transform="translate(-2771.583 -10810.109)" opacity="0.6">
      <g id="Group_7478" data-name="Group 7478">
        <g id="Group_7477" data-name="Group 7477" clip-path="url(#clip-path-25)">
          <path id="Path_16158" data-name="Path 16158" d="M383.212,177.445a.4.4,0,1,1,.231-.732.453.453,0,0,1,.365.518l-.113-.035c.042-.135-.09-.3-.288-.365a.351.351,0,0,0-.447.132c-.047.132.09.3.289.365Z" transform="translate(-382.834 -176.682)" fill="#fff"/>
        </g>
      </g>
    </g>
    <path id="Path_16159" data-name="Path 16159" d="M382.773,178.836A.4.4,0,1,1,383,178.1c.269.085.43.313.365.518l-.114-.036c.043-.135-.09-.3-.289-.365a.348.348,0,0,0-.446.133c-.046.133.09.3.289.365Z" transform="translate(-3154.197 -10987.486)" fill="#263238"/>
    <g id="Group_7482" data-name="Group 7482" transform="translate(-2771.802 -10809.413)" opacity="0.6">
      <g id="Group_7481" data-name="Group 7481">
        <g id="Group_7480" data-name="Group 7480" clip-path="url(#clip-path-29)">
          <path id="Path_16160" data-name="Path 16160" d="M382.773,178.836A.4.4,0,1,1,383,178.1c.269.085.43.313.365.518l-.114-.036c.043-.135-.09-.3-.289-.365a.348.348,0,0,0-.446.133c-.046.133.09.3.289.365Z" transform="translate(-382.395 -178.073)" fill="#fff"/>
        </g>
      </g>
    </g>
    <path id="Path_16161" data-name="Path 16161" d="M382.334,180.227a.4.4,0,1,1,.231-.732c.27.085.43.313.365.518l-.113-.036c.043-.135-.089-.3-.289-.365a.349.349,0,0,0-.446.132c-.046.132.09.3.289.365Z" transform="translate(-3153.978 -10988.183)" fill="#263238"/>
    <g id="Group_7485" data-name="Group 7485" transform="translate(-2772.022 -10808.718)" opacity="0.6">
      <g id="Group_7484" data-name="Group 7484">
        <g id="Group_7483" data-name="Group 7483" clip-path="url(#clip-path-29)">
          <path id="Path_16162" data-name="Path 16162" d="M382.334,180.227a.4.4,0,1,1,.231-.732c.27.085.43.313.365.518l-.113-.036c.043-.135-.089-.3-.289-.365a.349.349,0,0,0-.446.132c-.046.132.09.3.289.365Z" transform="translate(-381.956 -179.464)" fill="#fff"/>
        </g>
      </g>
    </g>
    <path id="Path_16163" data-name="Path 16163" d="M381.9,181.618a.4.4,0,1,1,.231-.732c.27.085.43.313.365.518l-.113-.036c.042-.135-.09-.3-.289-.365a.348.348,0,0,0-.446.133c-.046.133.09.3.289.365Z" transform="translate(-3153.758 -10988.877)" fill="#263238"/>
    <g id="Group_7488" data-name="Group 7488" transform="translate(-2772.241 -10808.022)" opacity="0.6">
      <g id="Group_7487" data-name="Group 7487">
        <g id="Group_7486" data-name="Group 7486" clip-path="url(#clip-path-25)">
          <path id="Path_16164" data-name="Path 16164" d="M381.9,181.618a.4.4,0,1,1,.231-.732c.27.085.43.313.365.518l-.113-.036c.042-.135-.09-.3-.289-.365a.348.348,0,0,0-.446.133c-.046.133.09.3.289.365Z" transform="translate(-381.517 -180.855)" fill="#fff"/>
        </g>
      </g>
    </g>
    <path id="Path_16165" data-name="Path 16165" d="M381.456,183.009a.4.4,0,1,1,.231-.732c.27.085.43.313.365.518l-.113-.036c.043-.135-.089-.3-.289-.365a.348.348,0,0,0-.446.133c-.046.133.09.3.289.365Z" transform="translate(-3153.539 -10989.573)" fill="#263238"/>
    <g id="Group_7491" data-name="Group 7491" transform="translate(-2772.461 -10807.327)" opacity="0.6">
      <g id="Group_7490" data-name="Group 7490">
        <g id="Group_7489" data-name="Group 7489" clip-path="url(#clip-path-25)">
          <path id="Path_16166" data-name="Path 16166" d="M381.456,183.009a.4.4,0,1,1,.231-.732c.27.085.43.313.365.518l-.113-.036c.043-.135-.089-.3-.289-.365a.348.348,0,0,0-.446.133c-.046.133.09.3.289.365Z" transform="translate(-381.078 -182.246)" fill="#fff"/>
        </g>
      </g>
    </g>
    <path id="Path_16167" data-name="Path 16167" d="M371.325,177.128l3.4-1.874-.712,3.582s-2.2.7-3.268-.344Z" transform="translate(-3148.371 -10986.076)" fill="#b55b52"/>
    <path id="Path_16168" data-name="Path 16168" d="M380.972,175.734l-.759,2.968-2.935.134.712-3.582Z" transform="translate(-3151.639 -10986.077)" fill="#b55b52"/>
    <g id="Group_7494" data-name="Group 7494" transform="translate(-2775.651 -10818.137)" opacity="0.2">
      <g id="Group_7493" data-name="Group 7493">
        <g id="Group_7492" data-name="Group 7492" clip-path="url(#clip-path-33)">
          <path id="Path_16169" data-name="Path 16169" d="M378.853,164.328l-4.154,2.788.012,1.488s3.307,1.229,7.444-3.738c.091-1.259.228-2.656.419-4.238Z" transform="translate(-374.699 -160.628)"/>
        </g>
      </g>
    </g>
    <path id="Path_16170" data-name="Path 16170" d="M380.841,152.255a40.856,40.856,0,0,1-3.938,5.826,17.731,17.731,0,0,1-2.614,2.671,6.658,6.658,0,0,1-1.976,1.143,3.64,3.64,0,0,1-1.592.189,3.28,3.28,0,0,1-1.581-.656,4.915,4.915,0,0,1-1.479-1.985,10.652,10.652,0,0,1-.608-1.882,21.591,21.591,0,0,1-.464-3.575,40.68,40.68,0,0,1,.249-6.925l1.855.082c.069,1.086.141,2.2.257,3.3.1,1.1.229,2.185.41,3.25a22.135,22.135,0,0,0,.7,3.064,7.415,7.415,0,0,0,.524,1.29,1.819,1.819,0,0,0,.536.676c.045.029.063,0-.04-.021-.06-.018-.038-.007.061-.057a4.112,4.112,0,0,0,.878-.625,17.437,17.437,0,0,0,2-2.236c.645-.834,1.253-1.725,1.846-2.631s1.18-1.846,1.72-2.74Z" transform="translate(-3146.27 -10971.98)" fill="#b55b52"/>
    <path id="Path_16171" data-name="Path 16171" d="M391.059,149.063c.4,1.475-3.364,6.482-3.364,6.482l-5.168-3.084s1.615-4.406,3.543-4.887c2.007-.5,4.535-.194,4.989,1.489" transform="translate(-3154.263 -10972.128)" fill="#0f1316"/>
    <path id="Path_16173" data-name="Path 16173" d="M365.589,114.332s-2.11,1.993,1.753,3.083c0,0-2.131-1.7-1.753-3.083" transform="translate(-3145.507 -10955.615)" fill="#263238"/>
    <path id="Path_16174" data-name="Path 16174" d="M378.587,119.8a.473.473,0,0,0-.678-.649l-1.494,1.223a.473.473,0,0,0-.028.708l.338.323a.473.473,0,0,0,.706-.058Zm-1.849,1.47-.217-.207a.352.352,0,0,1,.07-.51l1.147-.982a.3.3,0,0,1,.436.418l-.93,1.189a.352.352,0,0,1-.506.092" transform="translate(-3151.12 -10957.973)" fill="#407bff"/>
    <path id="Path_16175" data-name="Path 16175" d="M400.449,340.647h-5.7l-.61-1.818,6.359-.223Z" transform="translate(-3160.07 -11067.753)" fill="#e20612"/>
    <path id="Path_16176" data-name="Path 16176" d="M157.076,327.146a100.007,100.007,0,0,0,1.745,10.827c-1.05,2.041-2.993,2.076-3.912,1.107s-2.914-9.34-2.914-9.34Z" transform="translate(-3038.997 -11062.022)" fill="#ff8b7b"/>
    <path id="Path_16177" data-name="Path 16177" d="M130.055,237.43c-2.873-17.2-10.471-24.673-8.717-34.215l16.534-.139s2.579,24.25,2.8,35.614c.221,11.408,1.664,29.9,1.664,29.9l-5,2.256s-7.561-20.1-7.277-33.412" transform="translate(-3023.539 -10999.988)" fill="#263238"/>
    <path id="Path_16178" data-name="Path 16178" d="M152.037,337.859a20.247,20.247,0,0,0,5.821-1.593c.655-.493-.255-3.338-.255-3.338s-5.722.477-6.237.942.671,3.988.671,3.988" transform="translate(-3038.618 -11064.914)" fill="#263238"/>
    <g id="Group_7500" data-name="Group 7500" transform="translate(-2900.037 -10794.055)" opacity="0.6">
      <g id="Group_7499" data-name="Group 7499">
        <g id="Group_7498" data-name="Group 7498" clip-path="url(#clip-path-34)">
          <path id="Path_16179" data-name="Path 16179" d="M125.927,219.121c1.918,5.016,4.53,10.861,6.143,18.954,4.249-11.783,1.36-29.284,1.36-29.284Z" transform="translate(-125.927 -208.791)"/>
        </g>
      </g>
    </g>
    <path id="Path_16180" data-name="Path 16180" d="M107.384,330.037c-.325,2.455-1.8,9.409-1.684,11.25-1.444,1.514-2.922,1.481-3.553.139s-.079-11.113-.079-11.113Z" transform="translate(-3013.922 -11063.468)" fill="#ff8b7b"/>
    <path id="Path_16181" data-name="Path 16181" d="M105.294,239.579c1.475-17.954-.2-27.946.383-36.393l16.068-.108c.223,3.194,1,16.19-5.513,36.3-3.755,11.584-8.84,31.431-8.84,31.431l-5.812-1.544s.161-15.7,3.713-29.684" transform="translate(-3013.791 -10999.989)" fill="#263238"/>
    <path id="Path_16182" data-name="Path 16182" d="M100.863,337.639a18.8,18.8,0,0,0,5.709.683c.81-.2,1.052-3.12,1.052-3.12s-6.128-1.97-6.72-1.6-.041,4.036-.041,4.036" transform="translate(-3013.315 -11065.229)" fill="#263238"/>
    <path id="Path_16183" data-name="Path 16183" d="M132.139,197.743a19.964,19.964,0,0,0,0-4.139c0-.432-20.1-1.257-21.774-1.192-2.094.081-.311,9.644,1.333,12.9,14.568.956,19.984-5.052,20.441-7.566" transform="translate(-3017.707 -10994.653)" fill="#263238"/>
    <path id="Path_16184" data-name="Path 16184" d="M186.883,141.837l4.144-.818-2.335-4.5s-3.663,1.2-3.341,3.245Z" transform="translate(-3055.666 -10966.712)" fill="#ff8b7b"/>
    <path id="Path_16185" data-name="Path 16185" d="M196.859,136.244l-1.084-1.438a1.463,1.463,0,0,0-1.848-.415l-1.873.982,2.334,4.5,2.159-1.557a1.464,1.464,0,0,0,.313-2.068" transform="translate(-3059.027 -10965.562)" fill="#ff8b7b"/>
    <path id="Path_16186" data-name="Path 16186" d="M169.456,138.837a5.64,5.64,0,0,0-2.9-1.678l-.912-.208c-.478-.108-.588,0-.646.122l-.229.352-.469.705c-.318.467-.63.937-.956,1.4-.631.928-1.292,1.825-1.956,2.677a20.475,20.475,0,0,1-2.03,2.3l-.055.051c-.227-.249-.452-.505-.673-.771-.708-.863-1.389-1.794-2.043-2.762s-1.266-1.984-1.855-3.016q-.445-.772-.862-1.559l-.4-.785c-.126-.251-.271-.544-.362-.74-.017-.038-.042-.089-.061-.127a3.771,3.771,0,1,0-6.732,3.4h0c.19.376.338.65.509.964l.5.9q.51.89,1.049,1.758c.722,1.158,1.5,2.285,2.328,3.4a35.122,35.122,0,0,0,2.711,3.235,24.6,24.6,0,0,0,3.34,2.971l.158.116a3.152,3.152,0,0,0,2.713.476,7.718,7.718,0,0,0,2.714-1.418,13.532,13.532,0,0,0,1.69-1.6,25.71,25.71,0,0,0,2.43-3.219c.7-1.083,1.309-2.184,1.884-3.292.278-.56.552-1.118.8-1.687l.375-.857.183-.434c.078-.14.1-.3-.243-.67m-11.48,6.631.033.007c-.051.016-.069.014-.033-.007" transform="translate(-3035.951 -10964.809)" fill="#c63013"/>
    <g id="Group_7503" data-name="Group 7503" transform="translate(-2887.437 -10826.229)" opacity="0.2">
      <g id="Group_7502" data-name="Group 7502">
        <g id="Group_7501" data-name="Group 7501" clip-path="url(#clip-path-35)">
          <path id="Path_16187" data-name="Path 16187" d="M156.834,146.916l-2.63-2.475-2.587,1.355-.491,2.094q1.025,1.622,2.186,3.18a35.2,35.2,0,0,0,2.712,3.235,24.626,24.626,0,0,0,3.34,2.971c-2.717-2.578-2.529-10.36-2.529-10.36" transform="translate(-151.126 -144.441)"/>
        </g>
      </g>
    </g>
    <path id="Path_16188" data-name="Path 16188" d="M145.68,106.4a11.213,11.213,0,0,0,1.3,3.645.365.365,0,0,1-.365.574,1.523,1.523,0,0,1-.931-.892,7.935,7.935,0,0,0,.919,2.137.958.958,0,0,1,.006.948.415.415,0,0,1-.79-.056,1.8,1.8,0,0,0-.663-1.061c-.954-.688.527-5.3.527-5.3" transform="translate(-3035.416 -10951.649)" fill="#263238"/>
    <path id="Path_16189" data-name="Path 16189" d="M113.7,128.36a71.057,71.057,0,0,1,14.686-.1,8.17,8.17,0,0,1,7.3,8.146c-.023,7.512-1.99,9.924-3.242,21.46,1.036,1.349.273,3.287-.6,3.493-7.31,1.737-18.175-.342-21.774-1.192-1.585-.374-.668-2.488-.668-2.488-.012-3.9.773-3.586.564-8.4-.65-4.756-.143-8.333-1.074-14.649a5.525,5.525,0,0,1,4.8-6.275" transform="translate(-3017.42 -10962.416)" fill="#ef4626"/>
    <path id="Path_16190" data-name="Path 16190" d="M135.35,133.911s4.438.593,6.058-.494l-1.714,3.769a10.729,10.729,0,0,0-4.344-3.275" transform="translate(-3030.675 -10965.159)" fill="#c63013"/>
    <path id="Path_16192" data-name="Path 16192" d="M134.335,128.113a74.616,74.616,0,0,0-10.118-.017,6.993,6.993,0,0,0,5.544,4.716s.9-2.7,3.621-.584c0,0,1.641-2.622,3.09-.035,0,0,1.583-1.861-2.136-4.081" transform="translate(-3025.108 -10962.416)" fill="#c63013"/>
    <path id="Path_16194" data-name="Path 16194" d="M128.1,111.406a19.729,19.729,0,0,1-1.629,8.384.527.527,0,0,0,.126.594,10.4,10.4,0,0,0,6.963,2.52c3.1.042,2.924-.928,2.19-2.019a1.269,1.269,0,0,0-.408-.378c-2.122-1.258-2.2-2.944-1.6-3.961Z" transform="translate(-3026.217 -10954.153)" fill="#ff8b7b"/>
    <g id="Group_7512" data-name="Group 7512" transform="translate(-2898.145 -10842.745)" opacity="0.2">
      <g id="Group_7511" data-name="Group 7511">
        <g id="Group_7510" data-name="Group 7510" clip-path="url(#clip-path-36)">
          <path id="Path_16195" data-name="Path 16195" d="M129.745,111.409l5.637,5.14a2.389,2.389,0,0,0-.118,2.154,4.714,4.714,0,0,1-3.244-1.164c-1.453-1.235-1.948-2.694-2.309-4.753.025-.435.033-.892.035-1.378" transform="translate(-129.71 -111.409)"/>
        </g>
      </g>
    </g>
    <path id="Path_16196" data-name="Path 16196" d="M126.4,100.466c.251,3.785-.288,4.392,1.637,6.311,2.9,2.886,7.606,3.438,8.273-.4.6-3.455.933-9.715-2.787-11.172a5.229,5.229,0,0,0-7.122,5.262" transform="translate(-3026.195 -10945.865)" fill="#ff8b7b"/>
    <path id="Path_16197" data-name="Path 16197" d="M137.721,106.694c.013.323.161.351.372.34s.406-.056.392-.38-.2-.576-.407-.565-.372.282-.357.6" transform="translate(-3031.86 -10951.494)" fill="#263238"/>
    <path id="Path_16198" data-name="Path 16198" d="M143.94,106.694c.014.323.161.351.373.34s.406-.056.393-.38-.2-.576-.408-.565-.371.282-.358.6" transform="translate(-3034.97 -10951.494)" fill="#263238"/>
    <path id="Path_16199" data-name="Path 16199" d="M142.215,107.012a8.783,8.783,0,0,0,1.147,2.134,1.439,1.439,0,0,1-1.191.211Z" transform="translate(-3034.085 -10951.956)" fill="#ff5652"/>
    <path id="Path_16200" data-name="Path 16200" d="M136.626,103.927a.184.184,0,0,1-.061-.073.189.189,0,0,1,.092-.252,1.9,1.9,0,0,1,1.741.027.188.188,0,0,1,.06.26.192.192,0,0,1-.262.062,1.522,1.522,0,0,0-1.379-.006.191.191,0,0,1-.191-.017" transform="translate(-3031.273 -10950.153)" fill="#263238"/>
    <path id="Path_16201" data-name="Path 16201" d="M144.926,103.909a.189.189,0,0,1-.179.016,1.491,1.491,0,0,0-1.368.049.188.188,0,0,1-.261-.055.191.191,0,0,1,.055-.263,1.869,1.869,0,0,1,1.726-.081.191.191,0,0,1,.1.251.194.194,0,0,1-.07.084" transform="translate(-3034.544 -10950.151)" fill="#263238"/>
    <path id="Path_16202" data-name="Path 16202" d="M141.069,113.665a17.565,17.565,0,0,0-3.349-.069,1.966,1.966,0,0,0,2.142,1.25,1.148,1.148,0,0,0,1.207-1.181" transform="translate(-3031.86 -10955.232)" fill="#263238"/>
    <path id="Path_16203" data-name="Path 16203" d="M140.012,115a2.31,2.31,0,0,1,1.388.3,1.334,1.334,0,0,1-.779.254,2.277,2.277,0,0,1-1.386-.3,1.33,1.33,0,0,1,.777-.254" transform="translate(-3032.618 -10955.95)" fill="#a02724"/>
    <path id="Path_16204" data-name="Path 16204" d="M141.064,113.648a.51.51,0,0,1-.372.382,13.1,13.1,0,0,1-2.187-.1.693.693,0,0,1-.57-.342,20.132,20.132,0,0,1,3.13.057" transform="translate(-3031.967 -10955.232)" fill="#fff"/>
    <path id="Path_16205" data-name="Path 16205" d="M122.136,100.264s2.419.981,1.968-1.646,2.322-.154,2.849-3.191c0,0,2,.414,2.112-.956,0,0,.637.815-.123,1.069a1.014,1.014,0,0,0-.56.763.352.352,0,0,0,.572.351,1.768,1.768,0,0,1,1.141-.539c.956.016.29-1.756.29-1.756s.8.229,1.453,1.956c0,0,1.378-3.84-2.025-4.291,0,0-3.909-3.15-7.228,0s-3.459,5.278-3.459,5.278.14,2.485-1.041,2.991c-.634.272-.377.956,0,1.533a.28.28,0,0,0,.514-.172c-.015-.319.043-.594.275-.636.59-.105.9-1,.9-1a2.276,2.276,0,0,1-.169,1.825c-.506,1.125.843,1.04,1.04,2.25a2.02,2.02,0,0,0,.32.805.348.348,0,0,0,.627-.264.848.848,0,0,1,.037-.569,4.943,4.943,0,0,1,1.121,1.386.408.408,0,0,0,.766-.132,4.054,4.054,0,0,0-1.155-3.221Z" transform="translate(-3021.85 -10943.761)" fill="#263238"/>
    <path id="Path_16206" data-name="Path 16206" d="M122.814,108.891a3.453,3.453,0,0,0,1.749,1.842c1.014.436,1.572-.556,1.332-1.692-.215-1.021-1-2.479-2.041-2.43-1.023.049-1.469,1.241-1.04,2.279" transform="translate(-3024.326 -10951.756)" fill="#ff8b7b"/>
    <g id="Group_7515" data-name="Group 7515" transform="translate(-2907.964 -10812.766)" opacity="0.2">
      <g id="Group_7514" data-name="Group 7514">
        <g id="Group_7513" data-name="Group 7513" clip-path="url(#clip-path-37)">
          <path id="Path_16207" data-name="Path 16207" d="M127.353,176.61l.182-1.791a1.463,1.463,0,0,0-1.339-1.607L123.543,173l-2.6.948-.1-.363c-.143-.517-.314-.526-.476-.527l-.5-.052-1-.116c-.664-.079-1.327-.163-1.985-.256-1.316-.162-2.614-.393-3.857-.634a20.929,20.929,0,0,1-2.429-.63c.13,3.723-.374,4.185-.532,6.482.666.129,1.316.225,1.964.312a41.815,41.815,0,0,0,4.434.3q1.094.011,2.182-.023l1.089-.048.547-.031a.429.429,0,0,0,.441-.26,7.682,7.682,0,0,0,3.147-.046l2.111-.13a1.464,1.464,0,0,0,1.366-1.313" transform="translate(-110.072 -171.369)"/>
        </g>
      </g>
    </g>
    <g id="Group_7518" data-name="Group 7518" transform="translate(-2907.954 -10827.531)" opacity="0.2">
      <g id="Group_7517" data-name="Group 7517">
        <g id="Group_7516" data-name="Group 7516" clip-path="url(#clip-path-38)">
          <path id="Path_16208" data-name="Path 16208" d="M115.585,143.139l-.948-1.3-1.2.7-2.325,3.45-1.02,1.531c.147,3.089.093,5.643.5,8.665l1.045.154c-1.991-1.006,3.947-13.2,3.947-13.2" transform="translate(-110.092 -141.838)"/>
        </g>
      </g>
    </g>
    <path id="Path_16209" data-name="Path 16209" d="M149.788,171.886H136.232a.882.882,0,0,1-.859-1.077l1.894-8.307a.9.9,0,0,1,.873-.7H151.7a.882.882,0,0,1,.859,1.077l-1.893,8.307a.9.9,0,0,1-.874.7" transform="translate(-3030.675 -10979.352)" fill="#263238"/>
    <path id="Path_16210" data-name="Path 16210" d="M150.553,172.27H137a.882.882,0,0,1-.859-1.078l1.893-8.307a.9.9,0,0,1,.874-.7H152.46a.881.881,0,0,1,.86,1.077l-1.893,8.307a.9.9,0,0,1-.874.7" transform="translate(-3031.058 -10979.544)" fill="#263238"/>
    <g id="Group_7521" data-name="Group 7521" transform="translate(-2894.942 -10817.356)" opacity="0.5">
      <g id="Group_7520" data-name="Group 7520">
        <g id="Group_7519" data-name="Group 7519" clip-path="url(#clip-path-39)">
          <path id="Path_16211" data-name="Path 16211" d="M150.553,172.27H137a.882.882,0,0,1-.859-1.078l1.893-8.307a.9.9,0,0,1,.874-.7H152.46a.881.881,0,0,1,.86,1.077l-1.893,8.307a.9.9,0,0,1-.874.7" transform="translate(-136.116 -162.187)" fill="#fff"/>
        </g>
      </g>
    </g>
    <path id="Path_16212" data-name="Path 16212" d="M129.967,174.719l3.968-1.448.333,5.055s-3.752.875-4.538-1.044Z" transform="translate(-3027.865 -10985.086)" fill="#ff8b7b"/>
    <path id="Path_16213" data-name="Path 16213" d="M142.132,175.092l-.182,1.792a1.463,1.463,0,0,1-1.366,1.313l-2.111.13-.333-5.055,2.653.213a1.464,1.464,0,0,1,1.339,1.607" transform="translate(-3032.07 -10985.086)" fill="#ff8b7b"/>
    <path id="Path_16214" data-name="Path 16214" d="M114.628,153.675l-.2-.727c-.143-.516-.314-.526-.476-.527l-.5-.051-1-.116c-.664-.079-1.327-.162-1.985-.255-1.317-.163-2.614-.393-3.858-.635a16.553,16.553,0,0,1-3.327-.975,3.176,3.176,0,0,1-.349-.176,6.284,6.284,0,0,1,.2-1.045,15.531,15.531,0,0,1,.524-1.6c.431-1.115.962-2.279,1.548-3.434s1.233-2.309,1.893-3.458q.5-.861,1.018-1.712c.341-.557.712-1.148,1.041-1.647l.022-.033.049-.078a3.77,3.77,0,1,0-6.414-3.964c-.417.675-.768,1.275-1.136,1.914s-.715,1.266-1.061,1.906c-.693,1.281-1.339,2.594-1.954,3.947A38.775,38.775,0,0,0,97,145.274a22.163,22.163,0,0,0-.628,2.411,11.707,11.707,0,0,0-.238,2.965,6.845,6.845,0,0,0,.412,2.01l.113.287q.077.17.162.336a5.33,5.33,0,0,0,.367.6,5.868,5.868,0,0,0,.8.911,7.41,7.41,0,0,0,1.525,1.066,10.712,10.712,0,0,0,1.357.6,22.035,22.035,0,0,0,4.75,1.064,41.642,41.642,0,0,0,4.433.3q1.094.011,2.182-.023l1.089-.048.548-.031c.186,0,.362,0,.567-.518a5.534,5.534,0,0,0,.189-3.53" transform="translate(-3011.057 -10964.178)" fill="#c63013"/>
    <path id="Path_16215" data-name="Path 16215" d="M161.292,348.708l-4.232.565a.3.3,0,0,0-.267.3l-.035,3.413a.611.611,0,0,0,.693.59c1.472-.222,2.172-.4,4.034-.652,1.145-.153,4.45-.473,6.031-.684,1.546-.206,1.457-1.786.779-1.84a15.232,15.232,0,0,1-6.343-1.542.993.993,0,0,0-.661-.147" transform="translate(-3041.379 -11072.8)" fill="#263238"/>
    <path id="Path_16216" data-name="Path 16216" d="M166.34,348.626a.09.09,0,0,1-.046-.163c.157-.111,1.557-1.079,2.052-.888a.29.29,0,0,1,.183.217.5.5,0,0,1-.1.456,1.429,1.429,0,0,1-.883.353,6.448,6.448,0,0,1-1.2.023m.279-.166a2.429,2.429,0,0,0,1.67-.327.323.323,0,0,0,.064-.3.111.111,0,0,0-.072-.089.362.362,0,0,0-.171-.01,4.892,4.892,0,0,0-1.492.726" transform="translate(-3046.127 -11072.226)" fill="#263238"/>
    <path id="Path_16217" data-name="Path 16217" d="M166.3,347.859a.091.091,0,0,1-.048-.076,2.535,2.535,0,0,1,.37-1.526.651.651,0,0,1,.474-.22c.251-.008.339.108.369.207.126.418-.654,1.349-1.076,1.612a.092.092,0,0,1-.036.013.1.1,0,0,1-.053-.009m.455-1.481a2.084,2.084,0,0,0-.325,1.227c.42-.338.938-1.058.863-1.309-.007-.021-.026-.085-.191-.079h-.054a.472.472,0,0,0-.293.158" transform="translate(-3046.125 -11071.468)" fill="#263238"/>
    <path id="Path_16218" data-name="Path 16218" d="M104.889,349.809l-4.27-.008a.3.3,0,0,0-.3.26l-.493,3.377a.61.61,0,0,0,.608.677c1.489-.023,2.206-.109,4.084-.105,1.155,0,4.473.128,6.069.131,1.561,0,1.684-1.574,1.019-1.719a15.235,15.235,0,0,1-6.079-2.378.993.993,0,0,0-.635-.235" transform="translate(-3012.908 -11073.35)" fill="#263238"/>
    <path id="Path_16219" data-name="Path 16219" d="M110.349,350.051a.09.09,0,0,1-.023-.169c.171-.089,1.688-.859,2.153-.6a.289.289,0,0,1,.152.24.5.5,0,0,1-.163.438,1.431,1.431,0,0,1-.923.233,6.519,6.519,0,0,1-1.2-.138m.3-.128a2.428,2.428,0,0,0,1.7-.1.322.322,0,0,0,.1-.288.11.11,0,0,0-.06-.1.36.36,0,0,0-.167-.033,4.892,4.892,0,0,0-1.576.52" transform="translate(-3018.138 -11073.063)" fill="#263238"/>
    <path id="Path_16220" data-name="Path 16220" d="M110.314,349.143a.09.09,0,0,1-.038-.081,2.538,2.538,0,0,1,.572-1.463.652.652,0,0,1,.5-.155c.25.026.322.153.338.255.069.43-.829,1.248-1.282,1.452a.085.085,0,0,1-.037.008.089.089,0,0,1-.052-.016m.649-1.406a2.088,2.088,0,0,0-.486,1.172c.462-.279,1.072-.923,1.03-1.181,0-.022-.014-.087-.178-.1a.483.483,0,0,0-.054,0,.473.473,0,0,0-.311.117" transform="translate(-3018.138 -11072.17)" fill="#263238"/>
  </g>
</svg>
