<svg xmlns="http://www.w3.org/2000/svg" width="200.001" height="199.999" viewBox="0 0 200.001 199.999">
  <g id="no_data_found" transform="translate(-138 -325)">
    <g id="Group_7631" data-name="Group 7631" transform="translate(138.001 331)">
      <g id="Group_7618" data-name="Group 7618">
        <rect id="Rectangle_1984" data-name="Rectangle 1984" width="45.974" height="35.46" transform="translate(63.602 148.982)" fill="#ebebeb"/>
        <path id="Path_7527" data-name="Path 7527" d="M244.925,413.834c-.062,0-.115-7.906-.115-17.657s.053-17.657.115-17.657.115,7.906.115,17.657S244.987,413.834,244.925,413.834Z" transform="translate(-146.865 -229.639)" fill="#e0e0e0"/>
        <rect id="Rectangle_1985" data-name="Rectangle 1985" width="3.523" height="3.986" transform="translate(102.156 176.372)" fill="#fafafa"/>
        <rect id="Rectangle_1986" data-name="Rectangle 1986" width="5.222" height="7.566" transform="translate(77.631 149.075)" fill="#e0e0e0"/>
        <rect id="Rectangle_1987" data-name="Rectangle 1987" width="5.222" height="7.566" transform="translate(77.631 176.77)" fill="#e0e0e0"/>
        <rect id="Rectangle_1988" data-name="Rectangle 1988" width="57.972" height="44.712" transform="translate(135.029 140.092)" fill="#ebebeb"/>
        <path id="Path_7528" data-name="Path 7528" d="M427.1,402.853c-.062,0-.115-9.963-.115-22.257s.053-22.257.115-22.257.115,9.963.115,22.257S427.161,402.853,427.1,402.853Z" transform="translate(-248.621 -218.367)" fill="#e0e0e0"/>
        <rect id="Rectangle_1989" data-name="Rectangle 1989" width="4.445" height="5.023" transform="translate(183.639 174.624)" fill="#fafafa"/>
        <rect id="Rectangle_1990" data-name="Rectangle 1990" width="6.586" height="9.539" transform="translate(152.713 140.206)" fill="#e0e0e0"/>
        <rect id="Rectangle_1991" data-name="Rectangle 1991" width="6.586" height="9.539" transform="translate(152.713 175.128)" fill="#e0e0e0"/>
        <path id="Path_7529" data-name="Path 7529" d="M77.906,360.129a12.435,12.435,0,0,1,7.716-.936,6.4,6.4,0,0,1,3.809,1.7,2.745,2.745,0,0,1,.04,3.8,3.658,3.658,0,0,1-2.406.609c-2.039-.026-4.3-.384-5.928.843-.931.7-1.549,1.863-2.649,2.207a2.6,2.6,0,0,1-2.887-1.285,4.48,4.48,0,0,1-.327-3.315,5.054,5.054,0,0,1,2.632-3.628Z" transform="translate(-52.068 -218.722)" fill="#ebebeb"/>
        <path id="Path_7530" data-name="Path 7530" d="M67.571,311.181c1.435,2.048,4.224,1.373,5.518.119a10.4,10.4,0,0,0,2.335-4.789c1.139-3.951,2.282-8.1,1.439-12.117a6.7,6.7,0,0,0-1.549-3.293,3.532,3.532,0,0,0-3.328-1.108c-1.408.371-2.282,1.766-2.913,3.059a28.821,28.821,0,0,0-2.852,12.391,10.066,10.066,0,0,0,1.351,5.739" transform="translate(-47.109 -180.151)" fill="#ebebeb"/>
        <path id="Path_7531" data-name="Path 7531" d="M39.45,322.453a7.452,7.452,0,0,0,1.161-6.86,13.236,13.236,0,0,0-4.066-5.9A21.894,21.894,0,0,0,29.27,305.4a7.759,7.759,0,0,0-3.27-.553,3.43,3.43,0,0,0-2.746,1.66c-.768,1.461-.031,3.231.764,4.679a55.563,55.563,0,0,0,4.776,7.279,13.066,13.066,0,0,0,5.257,4.5c2.167.834,4.454.737,5.611-.777" transform="translate(-22.926 -188.484)" fill="#ebebeb"/>
        <path id="Path_7532" data-name="Path 7532" d="M69.029,384.25a4.446,4.446,0,0,0,.132-.927c.066-.68.146-1.532.247-2.543a37.087,37.087,0,0,1,.569-3.726,28.524,28.524,0,0,1,1.355-4.414,16.333,16.333,0,0,1,2.247-3.973,8.484,8.484,0,0,1,2.838-2.362,7.991,7.991,0,0,1,2.393-.742,4.357,4.357,0,0,0,.927-.137,4.291,4.291,0,0,0-.94,0,7.226,7.226,0,0,0-2.494.649,8.361,8.361,0,0,0-3,2.384,15.744,15.744,0,0,0-2.331,4.057,26.987,26.987,0,0,0-1.324,4.472,32.378,32.378,0,0,0-.5,3.774c-.079,1.081-.11,1.956-.124,2.56a4.415,4.415,0,0,0,.005.928Z" transform="translate(-48.664 -222.312)" fill="#e0e0e0"/>
        <path id="Path_7533" data-name="Path 7533" d="M69.22,350.5a1.875,1.875,0,0,0,.026-.441v-1.236c0-1.073,0-2.626.053-4.542.1-3.831.441-7.946,1.064-13.768.6-5.469,1.413-11.83,2.269-15.966.181-.94.366-1.788.543-2.529s.3-1.386.441-1.9.212-.883.291-1.2a1.81,1.81,0,0,0,.075-.441,1.763,1.763,0,0,0-.15.406c-.1.313-.216.7-.362,1.183s-.322,1.152-.508,1.889-.4,1.585-.6,2.525a139.918,139.918,0,0,0-2.388,14.814c-.636,5.827-.923,11.133-.949,14.973,0,1.92,0,3.478.066,4.551.031.5.057.909.075,1.232a1.9,1.9,0,0,0,.054.45Z" transform="translate(-48.679 -190.511)" fill="#e0e0e0"/>
        <path id="Path_7534" data-name="Path 7534" d="M52.208,344.254a8.3,8.3,0,0,0,0-1.293c-.049-.83-.163-2.026-.4-3.5a46,46,0,0,0-1.157-5.094,42.08,42.08,0,0,0-2.132-6.03,32.056,32.056,0,0,0-6.255-9.738,15.5,15.5,0,0,0-1.474-1.368c-.225-.194-.441-.384-.627-.534l-.547-.393a7.819,7.819,0,0,0-1.09-.7,38.814,38.814,0,0,1,3.562,3.178,33.815,33.815,0,0,1,6.1,9.711,46.854,46.854,0,0,1,2.141,5.972,50.961,50.961,0,0,1,1.2,5.041c.265,1.452.441,2.649.512,3.461a8.1,8.1,0,0,0,.167,1.287Z" transform="translate(-31.64 -194.5)" fill="#e0e0e0"/>
        <path id="Path_7535" data-name="Path 7535" d="M45.56,417.86l1.024,14.051h18.05l1.024-14.051Z" transform="translate(-35.569 -251.614)" fill="#ebebeb"/>
        <rect id="Rectangle_1992" data-name="Rectangle 1992" width="23.991" height="5.535" transform="translate(8.248 160.711)" fill="#ebebeb"/>
        <path id="Path_7536" data-name="Path 7536" d="M41.61,448.47V450h23.6v-1.53Z" transform="translate(-33.362 -268.712)" fill="#e0e0e0"/>
        <path id="Path_7537" data-name="Path 7537" d="M45.274,454.262l-1.1-2.7h21.6l-1.289,2.7Z" transform="translate(-34.792 -270.438)" fill="#e0e0e0"/>
        <path id="Path_7538" data-name="Path 7538" d="M65.708,425.774a.654.654,0,0,1-.084.132c-.071.093-.163.212-.269.358L64.3,427.589l-.049.062-.044-.062-2.582-3.571h.146l-2.543,3.6-.079.115-.088-.106-3.015-3.589h.172l-.163.212-2.7,3.377-.093.115-.079-.119-2.547-3.6h.15l-3.134,3.567-.053.066-.044-.075-.98-1.624c-.106-.177-.185-.322-.252-.441a.683.683,0,0,1-.079-.159.679.679,0,0,1,.106.141l.278.419,1.029,1.62h-.1l3.09-3.611.075-.093.071.1,2.569,3.584H53.2l2.688-3.386c.057-.071.115-.141.163-.207l.088-.11.088.106,3.006,3.6h-.168l2.569-3.58.075-.106.071.106c1.02,1.452,1.885,2.684,2.529,3.611H64.22l1.1-1.324c.119-.137.216-.247.291-.34a1,1,0,0,1,.1-.106Z" transform="translate(-35.954 -254.938)" fill="#f5f5f5"/>
        <path id="Path_7539" data-name="Path 7539" d="M66.1,417.51c0,.062-4.525.115-10.1.115s-10.1-.053-10.1-.115,4.52-.11,10.1-.11S66.1,417.449,66.1,417.51Z" transform="translate(-35.759 -251.357)" fill="#f5f5f5"/>
        <rect id="Rectangle_1993" data-name="Rectangle 1993" width="3.699" height="18.407" transform="translate(153.226 6.886) rotate(-0.286)" fill="#e0e0e0"/>
        <rect id="Rectangle_1994" data-name="Rectangle 1994" width="9.579" height="10.162" transform="translate(121.18 6.967) rotate(-0.286)" fill="#ebebeb"/>
        <rect id="Rectangle_1995" data-name="Rectangle 1995" width="9.579" height="10.162" transform="translate(130.714 6.915) rotate(-0.286)" fill="#f5f5f5"/>
        <path id="Path_7540" data-name="Path 7540" d="M297.383,63.015q9.552.079,19.114-.088a.1.1,0,1,0,0-.2c-6.365-.035-12.748,0-19.114.119a.088.088,0,0,0,0,.172Z" transform="translate(-176.193 -53.236)" fill="#e0e0e0"/>
        <rect id="Rectangle_1996" data-name="Rectangle 1996" width="17.405" height="8.281" transform="translate(115.208 17.002) rotate(-0.286)" fill="#ebebeb"/>
        <rect id="Rectangle_1997" data-name="Rectangle 1997" width="17.405" height="8.281" transform="translate(132.529 16.908) rotate(-0.286)" fill="#f5f5f5"/>
        <path id="Path_7541" data-name="Path 7541" d="M283.828,84.484c11.561.128,23.161,0,34.727-.172a.1.1,0,1,0,0-.2c-11.561-.062-23.166-.057-34.727.2a.089.089,0,0,0,0,.177Z" transform="translate(-168.61 -65.17)" fill="#e0e0e0"/>
        <rect id="Rectangle_1998" data-name="Rectangle 1998" width="67.432" height="2.966" transform="translate(108.707 25.29)" fill="#e0e0e0"/>
        <rect id="Rectangle_1999" data-name="Rectangle 1999" width="2.737" height="10.122" transform="translate(119.747 26.716)" fill="#e0e0e0"/>
        <rect id="Rectangle_2000" data-name="Rectangle 2000" width="2.737" height="10.122" transform="translate(160.61 26.716)" fill="#e0e0e0"/>
        <rect id="Rectangle_2001" data-name="Rectangle 2001" width="3.699" height="25.316" transform="translate(156.835 0.02) rotate(-0.286)" fill="#ebebeb"/>
        <rect id="Rectangle_2002" data-name="Rectangle 2002" width="5.747" height="20.517" transform="translate(160.564 4.745) rotate(-0.286)" fill="#f5f5f5"/>
        <path id="Path_7542" data-name="Path 7542" d="M392.339,60.777a40.721,40.721,0,0,1-5.739,0,42.563,42.563,0,0,1,5.739,0Z" transform="translate(-226.065 -52.102)" fill="#e0e0e0"/>
        <path id="Path_7543" data-name="Path 7543" d="M392.327,58.872a42.566,42.566,0,0,1-5.747,0,40.723,40.723,0,0,1,5.739,0Z" transform="translate(-226.054 -51.035)" fill="#e0e0e0"/>
        <path id="Path_7544" data-name="Path 7544" d="M392.339,91.307a40.722,40.722,0,0,1-5.739,0A42.563,42.563,0,0,1,392.339,91.307Z" transform="translate(-226.065 -69.156)" fill="#e0e0e0"/>
        <path id="Path_7545" data-name="Path 7545" d="M392.338,89.352a42.569,42.569,0,0,1-5.739,0,40.725,40.725,0,0,1,5.739,0Z" transform="translate(-226.065 -68.061)" fill="#e0e0e0"/>
        <path id="Path_7546" data-name="Path 7546" d="M393.177,73.518c-.053,0-.1-2.07-.1-4.622s.044-4.626.1-4.626.1,2.07.1,4.626S393.234,73.518,393.177,73.518Z" transform="translate(-229.685 -54.107)" fill="#e0e0e0"/>
        <rect id="Rectangle_2003" data-name="Rectangle 2003" width="6.255" height="15.485" transform="translate(166.339 9.761)" fill="#ebebeb"/>
        <circle id="Ellipse_142" data-name="Ellipse 142" cx="1.064" cy="1.064" r="1.064" transform="translate(157.564 3.268)" fill="#e0e0e0"/>
        <rect id="Rectangle_2004" data-name="Rectangle 2004" width="0.658" height="15.061" transform="translate(158.301 7.258)" fill="#e0e0e0"/>
      </g>
      <g id="Group_7619" data-name="Group 7619" transform="translate(5.48 184.446)">
        <path id="Path_7547" data-name="Path 7547" d="M224.852,459.2c0,.066-42.43.115-94.752.115s-94.761-.049-94.761-.115,42.421-.115,94.761-.115S224.852,459.143,224.852,459.2Z" transform="translate(-35.34 -459.09)" fill="#263238"/>
      </g>
      <g id="Group_7626" data-name="Group 7626" transform="translate(17.87 19.579)">
        <path id="Path_7548" data-name="Path 7548" d="M140.586,92.35a14.126,14.126,0,0,1,3.187,9.032c-.022,1.863-.366,3.915.72,5.43.821,1.148,2.322,1.726,2.988,2.971.8,1.5.119,3.39.614,5.015.7,2.3,3.4,3.271,5,5.068a6.409,6.409,0,0,1,1.324,5.862,6.586,6.586,0,0,1-4.141,4.379,4.291,4.291,0,0,1-3.275-.053,5.634,5.634,0,0,1-2.3-2.728c-1.058-2.126-10.4-13.626-10.933-15.951" transform="translate(-102.711 -89.37)" fill="#263238"/>
        <path id="Path_7549" data-name="Path 7549" d="M111.074,86.092c-3.823-.618-7.5,1.92-9.107,5.443s-1.655,7.5-1.766,11.389-.393,7.91-2.366,11.239c-1.254,2.114-3.2,3.973-3.5,6.4-.274,2.181.856,4.379.481,6.546-.327,1.889-1.766,3.531-1.708,5.443.071,2.3,2.441,4.039,4.741,4.1a10.03,10.03,0,0,0,6.259-2.574,24.058,24.058,0,0,0,6.873-8.736" transform="translate(-79.997 -85.823)" fill="#263238"/>
        <path id="Path_7550" data-name="Path 7550" d="M119.489,96.559a7.235,7.235,0,0,1,6.507-8.1,7.377,7.377,0,0,1,7.862,6.334,75.942,75.942,0,0,1,.927,7.981c-.049,3.712-2.207,5.156-3.09,5.593a4.97,4.97,0,0,1-.98.243h0v.026l.821,4.264c.375,2.794-1.183,5.3-3.973,5.69s-4.984-1.739-5.412-4.533Z" transform="translate(-94.703 -87.179)" fill="#ffbe9d"/>
        <path id="Path_7551" data-name="Path 7551" d="M147.436,105.915c-.062.088-.552-.172-1.179-.079s-1.046.472-1.126.406,0-.177.194-.353a1.625,1.625,0,0,1,.883-.441,1.545,1.545,0,0,1,.953.159C147.383,105.747,147.467,105.88,147.436,105.915Z" transform="translate(-109.04 -96.676)" fill="#263238"/>
        <path id="Path_7552" data-name="Path 7552" d="M134.776,109c-.062.088-.552-.177-1.183-.084s-1.042.477-1.121.411,0-.181.194-.353a1.624,1.624,0,0,1,.883-.441,1.58,1.58,0,0,1,.953.163C134.718,108.83,134.807,108.958,134.776,109Z" transform="translate(-101.968 -98.399)" fill="#263238"/>
        <path id="Path_7553" data-name="Path 7553" d="M141.579,110.664a4.146,4.146,0,0,1,.993-.331c.159-.04.3-.093.318-.207a.825.825,0,0,0-.177-.441l-.658-1.174a20.81,20.81,0,0,1-1.532-3.041,18.618,18.618,0,0,1,1.766,2.913c.225.406.441.795.636,1.161a.958.958,0,0,1,.177.618.4.4,0,0,1-.23.274,1.122,1.122,0,0,1-.269.079,3.973,3.973,0,0,1-1.024.149Z" transform="translate(-106.481 -96.698)" fill="#263238"/>
        <path id="Path_7554" data-name="Path 7554" d="M137.7,133.11a10.125,10.125,0,0,1-5.7-.83s1.426,3.068,5.924,1.978Z" transform="translate(-101.722 -111.674)" fill="#eb996e"/>
        <path id="Path_7555" data-name="Path 7555" d="M133.422,105.482c-.035.181-.675.19-1.4.388s-1.293.481-1.413.344c-.053-.066.026-.243.243-.441a2.525,2.525,0,0,1,2.141-.556C133.285,105.283,133.422,105.4,133.422,105.482Z" transform="translate(-100.937 -96.53)" fill="#263238"/>
        <path id="Path_7556" data-name="Path 7556" d="M146.492,102.735c-.088.159-.543.075-1.064.141s-.949.238-1.073.1c-.053-.066,0-.216.168-.38a1.466,1.466,0,0,1,.83-.362,1.505,1.505,0,0,1,.883.163C146.447,102.519,146.531,102.656,146.492,102.735Z" transform="translate(-108.612 -94.887)" fill="#263238"/>
        <path id="Path_7557" data-name="Path 7557" d="M134.634,110.728a.521.521,0,0,0,.6.441.5.5,0,0,0,.441-.565.525.525,0,0,0-.6-.441.5.5,0,0,0-.441.565Z" transform="translate(-103.19 -99.317)" fill="#263238"/>
        <path id="Path_7558" data-name="Path 7558" d="M147.244,108a.525.525,0,0,0,.6.441.5.5,0,0,0,.441-.565.525.525,0,0,0-.6-.441.5.5,0,0,0-.441.565Z" transform="translate(-110.234 -97.792)" fill="#263238"/>
        <path id="Path_7559" data-name="Path 7559" d="M143.872,119.955a.777.777,0,0,0-.918.38.808.808,0,0,0,.11.931.711.711,0,0,0,.918.066.883.883,0,0,0,.287-.6.847.847,0,0,0-.141-.6.481.481,0,0,0-.561-.168" transform="translate(-107.785 -104.771)" fill="#eb996e"/>
        <path id="Path_7560" data-name="Path 7560" d="M138.066,90.191a5.685,5.685,0,0,0-2.419-3.4,6.312,6.312,0,0,0-3.381-1.187,4.639,4.639,0,0,0-3.328,1.21,3.461,3.461,0,0,0-1.024,2.406l.071-.618a2.251,2.251,0,0,0,0,1.558h0c.1.269.225.543.331.812a3.487,3.487,0,0,0,1.651,1.8,2.269,2.269,0,0,0,1.1.269,1.324,1.324,0,0,0,1-.49,2.207,2.207,0,0,0,.238-1.58,3.774,3.774,0,0,0,1.205,1.324,1.324,1.324,0,0,0,1.66-.19,1.733,1.733,0,0,0,0-1.686,3.337,3.337,0,0,0,1.382,1.187,1.232,1.232,0,0,0,.984.106.958.958,0,0,0,.512-.662,2.022,2.022,0,0,0,.018-.859Z" transform="translate(-99.401 -85.6)" fill="#263238"/>
        <path id="Path_7561" data-name="Path 7561" d="M136.3,92.082c-.04,0-.031-.525-.2-1.324a5.05,5.05,0,0,0-1.523-2.768,3.615,3.615,0,0,0-1.527-.825,3.319,3.319,0,0,0-1.421-.035,4.1,4.1,0,0,0-1.227.508,1.185,1.185,0,0,1,.269-.252,2.71,2.71,0,0,1,.923-.415,3.3,3.3,0,0,1,1.505,0,3.739,3.739,0,0,1,1.633.883,4.94,4.94,0,0,1,1.532,2.909,6.386,6.386,0,0,1,.079,1A.945.945,0,0,1,136.3,92.082Z" transform="translate(-100.828 -86.317)" fill="#455a64"/>
        <path id="Path_7562" data-name="Path 7562" d="M195.9,192.024l-16.973-6.732s-8.692-11.4-8.511-11.623l-6.1,6.683,8.873,12,20.566,4.82,3.531-.98C196.5,192.448,195.9,192.024,195.9,192.024Z" transform="translate(-119.769 -134.794)" fill="#ffbe9d"/>
        <path id="Path_7563" data-name="Path 7563" d="M122.084,140.443l-2.313-.883-9.985,1.267v1.766l-.287.035A20.454,20.454,0,0,0,103.385,145a10.435,10.435,0,0,0-4.856,10.625c.406,2.525,1.192,5.593,2.71,7.367,2.9,3.4,5.549-.8,5.549-.8s1.819,4.149,1.713,6.114a53.538,53.538,0,0,1-1.046,6.14.322.322,0,0,0,.26.388l21.065,3.9.1-5.151-.671-21.188-.949-8.228S127.292,140.24,122.084,140.443Z" transform="translate(-82.946 -115.741)" fill="#ef4626"/>
        <path id="Path_7564" data-name="Path 7564" d="M163.07,146.9l8.034,11.6-6.467,7.875Z" transform="translate(-119.077 -119.841)" fill="#ef4626"/>
        <path id="Path_7565" data-name="Path 7565" d="M163.989,178.4a5.068,5.068,0,0,1-.031-.75c0-.521,0-1.205-.026-2.039a61.864,61.864,0,0,0-.481-6.7c-.331-2.6-.839-4.931-1.223-6.621l-.468-1.986a5.112,5.112,0,0,1-.15-.733,4.218,4.218,0,0,1,.238.711c.137.441.322,1.134.534,1.973a54.1,54.1,0,0,1,1.3,6.621,51.94,51.94,0,0,1,.415,6.727c0,.883-.022,1.563-.049,2.044A4.414,4.414,0,0,1,163.989,178.4Z" transform="translate(-118.261 -126.918)" fill="#263238"/>
        <path id="Path_7566" data-name="Path 7566" d="M108.872,162.149c0,.035-.609.031-1.585.079a25.663,25.663,0,0,0-3.787.49,26.244,26.244,0,0,0-3.673,1.055c-.918.34-1.47.591-1.488.556a1.576,1.576,0,0,1,.371-.216c.243-.132.6-.3,1.059-.49a20.562,20.562,0,0,1,7.5-1.554c.494,0,.883,0,1.17.026a1.4,1.4,0,0,1,.433.054Z" transform="translate(-82.92 -128.314)" fill="#fafafa"/>
        <path id="Path_7567" data-name="Path 7567" d="M155.558,174.28a3.9,3.9,0,0,1-1,.221,22.277,22.277,0,0,1-4.931.168,3.972,3.972,0,0,1-1.015-.15,5.788,5.788,0,0,1,1.024,0h2.454c.958,0,1.823-.1,2.45-.155A5.641,5.641,0,0,1,155.558,174.28Z" transform="translate(-111 -135.134)" fill="#fafafa"/>
        <path id="Path_7568" data-name="Path 7568" d="M167.957,162.386a6.25,6.25,0,0,1-1.722,1.391,6.057,6.057,0,0,1-2.026.883c-.026-.062.883-.441,1.907-1.1a19.908,19.908,0,0,1,1.841-1.179Z" transform="translate(-119.713 -128.489)" fill="#fafafa"/>
        <path id="Path_7569" data-name="Path 7569" d="M158.977,150.2a8.325,8.325,0,0,1-5.037,2.119c0-.071,1.214-.256,2.609-.852S158.933,150.139,158.977,150.2Z" transform="translate(-113.977 -121.68)" fill="#fafafa"/>
        <path id="Path_7570" data-name="Path 7570" d="M151.566,194.636a2.1,2.1,0,0,1-.415.216c-.278.132-.68.3-1.192.486a22.019,22.019,0,0,1-4.1,1.042,21.656,21.656,0,0,1-4.224.234c-.543-.022-.98-.062-1.28-.1a2.089,2.089,0,0,1-.464-.084,16.368,16.368,0,0,1,1.766.026,25.948,25.948,0,0,0,8.268-1.271C150.93,194.852,151.552,194.6,151.566,194.636Z" transform="translate(-106.129 -146.503)" fill="#fafafa"/>
        <path id="Path_7571" data-name="Path 7571" d="M140.5,208.19a1.718,1.718,0,0,1-.19.11l-.565.247c-.486.23-1.205.53-2.106.883a32.592,32.592,0,0,1-3.218,1.029,37.935,37.935,0,0,1-8.166,1.267c-1.271.049-2.415.044-3.377,0s-1.735-.115-2.269-.19l-.614-.084a.817.817,0,0,1-.212-.044.687.687,0,0,1,.216,0l.618.04c.534.044,1.324.088,2.265.115s2.1,0,3.364-.044a32.5,32.5,0,0,0,4.092-.441c1.443-.238,2.8-.525,4.03-.834s2.313-.658,3.214-.98,1.633-.592,2.128-.795l.574-.225a1.064,1.064,0,0,1,.216-.053Z" transform="translate(-94.896 -154.076)" fill="#fafafa"/>
        <path id="Path_7572" data-name="Path 7572" d="M70.291,420.78,67.9,431.564l-4.357,7.985a1.134,1.134,0,0,0,.521,1.571h0a1.126,1.126,0,0,0,1.033-.049c2.022-1.165,9.442-5.5,9.57-6.3.154-.923,3.275-11.208,3.275-11.208Z" transform="translate(-63.408 -272.823)" fill="#ef4626"/>
        <g id="Group_7620" data-name="Group 7620" transform="translate(0.659 161.235)" opacity="0.6">
          <path id="Path_7573" data-name="Path 7573" d="M64.9,457.923l10.784-7.063-.115.441a1.7,1.7,0,0,1-.653.98c-.883.631-3.342,2.326-8.948,5.6a1.13,1.13,0,0,1-1.068.042Z" transform="translate(-64.9 -450.86)" fill="#fff"/>
        </g>
        <g id="Group_7621" data-name="Group 7621" transform="translate(9.666 157.184)" opacity="0.6">
          <path id="Path_7574" data-name="Path 7574" d="M85.727,441.721a.684.684,0,0,0-.393.825.658.658,0,0,0,.812.4.724.724,0,0,0,.415-.883.684.684,0,0,0-.883-.322" transform="translate(-85.306 -441.683)" fill="#fff"/>
        </g>
        <path id="Path_7575" data-name="Path 7575" d="M70.636,455.513a3.532,3.532,0,0,0-.737-1.064,3.431,3.431,0,0,0-1.179-.525c0-.031.154-.079.415-.053a1.766,1.766,0,0,1,.918.406,1.714,1.714,0,0,1,.556.821C70.684,455.349,70.662,455.513,70.636,455.513Z" transform="translate(-66.375 -291.303)" fill="#263238"/>
        <path id="Path_7576" data-name="Path 7576" d="M68.184,458.976c-.062.035-.322-.4-.839-.693a8.285,8.285,0,0,0-1.015-.393,1.262,1.262,0,0,1,1.139.181C68.056,458.411,68.246,458.963,68.184,458.976Z" transform="translate(-65.04 -293.517)" fill="#263238"/>
        <path id="Path_7577" data-name="Path 7577" d="M73.859,451.79a10.771,10.771,0,0,0-1.218-1.157,10.938,10.938,0,0,0-1.5-.764,2.521,2.521,0,0,1,1.642.565,2.472,2.472,0,0,1,1.076,1.356Z" transform="translate(-67.727 -289.072)" fill="#263238"/>
        <path id="Path_7578" data-name="Path 7578" d="M76.09,445.794c-.044.057-.578-.336-1.324-.552s-1.421-.181-1.426-.256a2.816,2.816,0,0,1,2.768.808Z" transform="translate(-68.956 -286.294)" fill="#263238"/>
        <path id="Path_7579" data-name="Path 7579" d="M77.681,438.641a5.581,5.581,0,0,0-1.382-.614,5.6,5.6,0,0,0-1.51,0c0-.026.137-.132.419-.216a2.468,2.468,0,0,1,2.172.441C77.606,438.464,77.7,438.623,77.681,438.641Z" transform="translate(-69.766 -282.288)" fill="#263238"/>
        <path id="Path_7580" data-name="Path 7580" d="M76.815,434.446a.989.989,0,0,1,.088-.406,2.825,2.825,0,0,1,.583-.984,1.3,1.3,0,0,1,.68-.468.468.468,0,0,1,.477.221.742.742,0,0,1,.049.53,1.6,1.6,0,0,1-1.713,1.1,1.863,1.863,0,0,1-1.541-1.377.662.662,0,0,1,.1-.53.441.441,0,0,1,.508-.119,1.611,1.611,0,0,1,.618.543,3.262,3.262,0,0,1,.525,1.02,1.016,1.016,0,0,1,.075.415,5.068,5.068,0,0,0-.737-1.324,1.491,1.491,0,0,0-.547-.441.238.238,0,0,0-.278.066.441.441,0,0,0-.044.349A1.664,1.664,0,0,0,77,434.2a1.391,1.391,0,0,0,1.47-.914.552.552,0,0,0,0-.371.247.247,0,0,0-.26-.124,1.161,1.161,0,0,0-.587.38,4.537,4.537,0,0,0-.808,1.275Z" transform="translate(-70.118 -279.303)" fill="#263238"/>
        <g id="Group_7622" data-name="Group 7622" transform="translate(6.075 147.957)" opacity="0.3">
          <path id="Path_7581" data-name="Path 7581" d="M77.686,421.95l-.516,2.472,7.809,1.3.653-2.159-7.668-2.781Z" transform="translate(-77.17 -420.78)"/>
        </g>
        <path id="Path_7582" data-name="Path 7582" d="M146.817,429.379,146.173,438s8.546,3.531,8.581,5.156L137.98,442.5l.441-13.472Z" transform="translate(-105.062 -277.432)" fill="#ef4626"/>
        <g id="Group_7623" data-name="Group 7623" transform="translate(35.458 159.627)" opacity="0.6">
          <path id="Path_7583" data-name="Path 7583" d="M144.244,447.228a.689.689,0,0,0-.5.764.662.662,0,0,0,.75.508.724.724,0,0,0,.53-.812.684.684,0,0,0-.839-.441" transform="translate(-143.734 -447.219)" fill="#fff"/>
        </g>
        <g id="Group_7624" data-name="Group 7624" transform="translate(32.927 163.711)" opacity="0.6">
          <path id="Path_7584" data-name="Path 7584" d="M138,457.83l.1-1.359,16.046,1.117s.737.353.631.883Z" transform="translate(-138 -456.47)" fill="#fff"/>
        </g>
        <path id="Path_7585" data-name="Path 7585" d="M155.207,449.063c0,.084-.415.106-.825.353s-.64.583-.715.547.066-.5.569-.8S155.229,448.988,155.207,449.063Z" transform="translate(-113.814 -288.575)" fill="#263238"/>
        <path id="Path_7586" data-name="Path 7586" d="M159.636,450.949c0,.084-.344.208-.636.543s-.384.7-.468.693-.115-.472.256-.883S159.636,450.861,159.636,450.949Z" transform="translate(-116.512 -289.652)" fill="#263238"/>
        <path id="Path_7587" data-name="Path 7587" d="M163.07,454.073c-.075,0-.172-.4.053-.839s.618-.6.649-.534-.212.3-.393.662S163.15,454.069,163.07,454.073Z" transform="translate(-119.029 -290.645)" fill="#263238"/>
        <path id="Path_7588" data-name="Path 7588" d="M154.759,444.276c-.035.071-.406-.057-.883-.044s-.83.146-.883.075.318-.349.883-.358S154.812,444.215,154.759,444.276Z" transform="translate(-113.446 -285.765)" fill="#263238"/>
        <g id="Group_7625" data-name="Group 7625" transform="translate(33.289 153.02)" opacity="0.3">
          <path id="Path_7589" data-name="Path 7589" d="M147.167,432.886l-.115,1.536-8.233-.4.057-1.775Z" transform="translate(-138.82 -432.25)"/>
        </g>
        <path id="Path_7590" data-name="Path 7590" d="M154.066,438.924a1.523,1.523,0,0,1-.839-.035,3.673,3.673,0,0,1-.883-.3,4.043,4.043,0,0,1-.472-.274,1.1,1.1,0,0,1-.247-.207.362.362,0,0,1,0-.441.441.441,0,0,1,.366-.172,1.25,1.25,0,0,1,.313.053,2.951,2.951,0,0,1,.512.2,2.879,2.879,0,0,1,.755.534c.375.375.494.689.468.7s-.216-.238-.6-.552a3.533,3.533,0,0,0-.733-.441,4.65,4.65,0,0,0-.477-.168c-.177-.053-.327-.057-.375,0s0,.044,0,.1a.836.836,0,0,0,.181.15,4.3,4.3,0,0,0,.441.269,4.491,4.491,0,0,0,.8.344,5.8,5.8,0,0,1,.79.243Z" transform="translate(-112.642 -282.157)" fill="#263238"/>
        <path id="Path_7591" data-name="Path 7591" d="M156.754,437.66a1.391,1.391,0,0,1-.19-.821,2.958,2.958,0,0,1,.15-.914,3.169,3.169,0,0,1,.234-.5.7.7,0,0,1,.552-.406.4.4,0,0,1,.344.252,1.1,1.1,0,0,1,.071.309,1.845,1.845,0,0,1,0,.565,1.934,1.934,0,0,1-.393.852c-.344.441-.689.508-.7.481a3.668,3.668,0,0,0,.534-.6,1.907,1.907,0,0,0,.3-.777,1.765,1.765,0,0,0,0-.486c-.022-.177-.084-.327-.15-.309a.622.622,0,0,0-.3.265,3.25,3.25,0,0,0-.225.441,3.138,3.138,0,0,0-.194.83C156.723,437.337,156.8,437.66,156.754,437.66Z" transform="translate(-115.44 -280.778)" fill="#263238"/>
        <path id="Path_7592" data-name="Path 7592" d="M93.869,217.809s-2.649.119-4.414,9.177S74.23,309.44,74.23,309.44l9.76.088,18.39-69.78L101.157,311.7l9.914.759s7.438-79.584,7.5-84.215c.088-5.774-3.227-11.614-3.227-11.614Z" transform="translate(-69.453 -158.79)" fill="#263238"/>
        <path id="Path_7593" data-name="Path 7593" d="M143.1,217.55c.062,0-.953,5.187-2.265,11.556s-2.423,11.526-2.485,11.512.949-5.187,2.26-11.556S143.048,217.537,143.1,217.55Z" transform="translate(-105.265 -159.304)" fill="#455a64"/>
        <path id="Path_7594" data-name="Path 7594" d="M151.594,220.44c0-.026.265-.106.569.163a.808.808,0,0,1,.265.622.781.781,0,0,1-.5.671.79.79,0,0,1-.83-.11.825.825,0,0,1-.26-.627c0-.406.274-.547.278-.521a1.258,1.258,0,0,0-.115.516.675.675,0,0,0,.234.468.631.631,0,0,0,.98-.411.671.671,0,0,0-.168-.494C151.833,220.466,151.59,220.475,151.594,220.44Z" transform="translate(-112.245 -160.901)" fill="#455a64"/>
        <path id="Path_7595" data-name="Path 7595" d="M150.339,228.546c0-.026.274,0,.441.366a.751.751,0,0,1-1.4.543.768.768,0,0,1,.075-.644c.207-.331.49-.322.481-.3a.853.853,0,0,0-.34.371.653.653,0,0,0,0,.494.587.587,0,0,0,.989.079.658.658,0,0,0,.057-.494C150.515,228.665,150.316,228.577,150.339,228.546Z" transform="translate(-111.408 -165.423)" fill="#455a64"/>
        <path id="Path_7596" data-name="Path 7596" d="M118.848,220.68a1.691,1.691,0,0,1-.115.441,7.362,7.362,0,0,1-.516,1.17,8.577,8.577,0,0,1-6.789,4.472,7.346,7.346,0,0,1-1.276,0,1.765,1.765,0,0,1-.441-.071c0-.044.667.031,1.722-.1A8.956,8.956,0,0,0,118.1,222.2C118.614,221.307,118.808,220.667,118.848,220.68Z" transform="translate(-89.271 -161.052)" fill="#455a64"/>
        <path id="Path_7597" data-name="Path 7597" d="M169.422,225.606a2.3,2.3,0,0,1-.3-.177,5.3,5.3,0,0,1-.706-.609,7.5,7.5,0,0,1-2.159-5.6,4.855,4.855,0,0,1,.119-.923c.049-.216.079-.331.1-.327s-.053.481-.053,1.254a8.184,8.184,0,0,0,2.114,5.487C169.055,225.28,169.444,225.571,169.422,225.606Z" transform="translate(-120.855 -159.539)" fill="#455a64"/>
        <path id="Path_7598" data-name="Path 7598" d="M239.454,221.708c.146-.353.106-.212-2.234-1.766,0,0,3.355,2.207,3.006,1.157a4.283,4.283,0,0,0-1.09-1.011c.883.521,1.4.578,1.549.366.265-.366-1.655-1.766-2.569-2.4a22,22,0,0,0,2.622,1.611c.543.168.283-.468-.084-.931s-3.209-3.2-3.973-4.017a.662.662,0,0,1,0-1.006,4.187,4.187,0,0,0,1.951-2.755.5.5,0,0,0-.936-.159,6.056,6.056,0,0,1-1.2,1.13,3.911,3.911,0,0,1-1.157.622,9.294,9.294,0,0,1-3.386-.234l-1.629,5.522s5.911,2.763,7.032,3.3C238.739,221.8,239.353,221.978,239.454,221.708Z" transform="translate(-156.647 -155.384)" fill="#ffbe9d"/>
        <path id="Path_7599" data-name="Path 7599" d="M243.527,229.988a7.772,7.772,0,0,0,1.713,1.258,8.107,8.107,0,0,0,1.867,1.02,8.121,8.121,0,0,0-1.717-1.258,7.387,7.387,0,0,0-1.863-1.02Z" transform="translate(-164.017 -166.246)" fill="#eb996e"/>
        <path id="Path_7600" data-name="Path 7600" d="M244.788,227.544a9.047,9.047,0,0,0,1.766,1.443,9.722,9.722,0,0,0,1.916,1.214,9.062,9.062,0,0,0-1.766-1.443,9.72,9.72,0,0,0-1.916-1.214Z" transform="translate(-164.721 -164.884)" fill="#eb996e"/>
        <path id="Path_7601" data-name="Path 7601" d="M246.118,225.064a8.415,8.415,0,0,0,1.638,1.395,8.6,8.6,0,0,0,1.8,1.165,8.634,8.634,0,0,0-1.633-1.4A8.2,8.2,0,0,0,246.118,225.064Z" transform="translate(-165.464 -163.498)" fill="#eb996e"/>
        <path id="Path_7602" data-name="Path 7602" d="M104.238,149.6l4.335.238a21.772,21.772,0,0,0,1.227,3.531,72.663,72.663,0,0,0,6.869-17.436q-.146-.481-.358-1.086a4.608,4.608,0,0,1,.053-1.836c.119-.724.322-1.7.38-2.154.19-1.377.411-1.6.883-1.439.653.212-.269,3.871.265,3.951.291.04.64-1.214.746-2.242s.565-4.189.9-4.414c.5-.309.931.181.808,1.205s-.287,4.127.256,4.167.984-5.2.984-5.2-.084-1.139.543-1.112c1.134.049.252,5.58.155,6.1-.071.362.521.441.574.035s.327-5.249,1.479-5.209c.883.031-.684,4.555-.185,5.606s.843-3.562,1.691-3.5c.313.026.547.088-.031,2.7a59.511,59.511,0,0,1-2.026,6.118c-1.324,7.239-7.235,30.4-16.47,26.159-5.165-2.37-7.579-14.126-7.579-14.126Z" transform="translate(-83.702 -108.038)" fill="#ffbe9d"/>
        <path id="Path_7603" data-name="Path 7603" d="M144.565,137.507a.621.621,0,0,1,.044-.159c.04-.115.088-.265.155-.441.146-.419.344-1,.6-1.766s.574-1.691.883-2.785c.159-.543.291-1.134.411-1.766.062-.318.119-.644.159-.98a3.781,3.781,0,0,0,0-.5c0-.172-.04-.313-.177-.318s-.234.079-.331.225a2.745,2.745,0,0,0-.216.49c-.124.349-.221.72-.318,1.1s-.185.768-.3,1.165a1.814,1.814,0,0,1-.265.609.243.243,0,0,1-.119.075.2.2,0,0,1-.168-.04.57.57,0,0,1-.124-.163,1.263,1.263,0,0,1-.093-.34,10.913,10.913,0,0,1,.265-2.649c.075-.441.155-.883.212-1.324a6.722,6.722,0,0,0,.057-.68c0-.238-.031-.49-.124-.53s-.318.084-.441.269a2.7,2.7,0,0,0-.287.627,9.16,9.16,0,0,0-.34,1.413c-.084.486-.15.98-.207,1.483-.022.252-.049.5-.071.759l-.035.384a.561.561,0,0,1-.177.441.442.442,0,0,1-.521,0,.362.362,0,0,1-.159-.252.5.5,0,0,1,0-.141v-.093l.119-.772c.075-.521.137-1.042.185-1.571s.088-1.064.1-1.6a5.3,5.3,0,0,0-.159-1.571.525.525,0,0,0-.221-.318.265.265,0,0,0-.3.1,1.443,1.443,0,0,0-.168.856h0c-.1,1.037-.207,2.057-.358,3.059-.075.5-.159,1-.283,1.488-.035.119-.071.243-.115.366a.742.742,0,0,1-.252.38.265.265,0,0,1-.322-.071.529.529,0,0,1-.119-.2,1.8,1.8,0,0,1-.1-.38,14.759,14.759,0,0,1-.026-2.891,7.626,7.626,0,0,0,.075-1.355.751.751,0,0,0-.247-.5.3.3,0,0,0-.23-.035.7.7,0,0,0-.119.053c-.04.035-.035,0-.062.075a6.022,6.022,0,0,0-.349,1.232c-.088.441-.163.843-.23,1.258s-.128.821-.181,1.227-.079.8-.159,1.2a6.57,6.57,0,0,1-.309,1.139,2.2,2.2,0,0,1-.128.274c-.062.084-.1.19-.265.243a.221.221,0,0,1-.225-.1.654.654,0,0,1-.071-.163,1.766,1.766,0,0,1-.035-.291c0-.755.1-1.443.141-2.11a5.32,5.32,0,0,0,0-.958c0-.141-.066-.309-.146-.34a.406.406,0,0,0-.358,0,1.24,1.24,0,0,0-.327.724c-.066.269-.093.543-.141.8-.185,1.042-.38,1.942-.472,2.675a3.628,3.628,0,0,0,0,.971c.062.265.155.5.2.689s.1.318.128.441a.773.773,0,0,1,.035.146.578.578,0,0,1-.062-.137l-.15-.441c-.062-.19-.155-.4-.23-.693a3.531,3.531,0,0,1,0-1c.084-.746.26-1.638.441-2.684.049-.26.075-.534.132-.817a4.166,4.166,0,0,1,.119-.441.751.751,0,0,1,.274-.4.556.556,0,0,1,.521,0,.6.6,0,0,1,.278.512,5.376,5.376,0,0,1,0,1c-.031.671-.137,1.373-.119,2.088a1.507,1.507,0,0,0,.031.252c0,.084.062.119.053.1s.084-.071.119-.141a2.047,2.047,0,0,0,.115-.243,5.949,5.949,0,0,0,.287-1.1c.075-.384.1-.781.155-1.192s.106-.817.172-1.236.141-.839.225-1.267a5.737,5.737,0,0,1,.371-1.3.441.441,0,0,1,.155-.172.859.859,0,0,1,.185-.075.538.538,0,0,1,.441.066.953.953,0,0,1,.358.671,2.648,2.648,0,0,1,0,.724c-.022.225-.044.441-.057.689a14.065,14.065,0,0,0,.026,2.825,1.766,1.766,0,0,0,.088.327.3.3,0,0,0,.066.115h.022a.883.883,0,0,0,.128-.243,2.953,2.953,0,0,0,.106-.344c.119-.468.2-.962.274-1.457.15-.993.26-2.013.353-3.046v.022a1.7,1.7,0,0,1,.225-1.046.552.552,0,0,1,.614-.181.79.79,0,0,1,.38.486,5.537,5.537,0,0,1,.172,1.664c0,.547-.049,1.086-.1,1.62s-.115,1.059-.19,1.58c-.04.265-.079.521-.119.781-.035.163-.026.168,0,.216a.186.186,0,0,0,.207,0c.053-.04.062-.115.075-.26l.031-.384.079-.764c.053-.5.124-1.006.207-1.5a10.094,10.094,0,0,1,.353-1.452,3.216,3.216,0,0,1,.322-.684.984.984,0,0,1,.283-.291.486.486,0,0,1,.441-.066.517.517,0,0,1,.243.388,2.165,2.165,0,0,1,.022.375,6.257,6.257,0,0,1-.057.711c-.062.441-.146.909-.225,1.355a11.132,11.132,0,0,0-.274,2.556,1.139,1.139,0,0,0,.071.269.5.5,0,0,0,.057.088h0v-.031a1.766,1.766,0,0,0,.216-.516c.115-.384.207-.772.309-1.152a11.28,11.28,0,0,1,.331-1.117,2.753,2.753,0,0,1,.238-.521.842.842,0,0,1,.2-.234.366.366,0,0,1,.154-.079.558.558,0,0,1,.172,0,.34.34,0,0,1,.278.2.812.812,0,0,1,.057.291,3.48,3.48,0,0,1-.031.534c-.04.344-.106.671-.168.993a16.625,16.625,0,0,1-.441,1.766c-.331,1.1-.662,2.022-.931,2.777s-.5,1.324-.653,1.73c-.075.185-.137.331-.181.441a.958.958,0,0,1-.063.217Z" transform="translate(-104.47 -107.883)" fill="#eb996e"/>
        <path id="Path_7604" data-name="Path 7604" d="M99.65,175.9c.839,2.962,2.481,7.531,4.242,12.36a.834.834,0,0,0,1.541.075l4.317-9.133s-1.042-7.5-.953-7.235-8.908.971-8.908.971Z" transform="translate(-83.652 -133.841)" fill="#ef4626"/>
        <path id="Path_7605" data-name="Path 7605" d="M110.843,177.56c0,.035-.539.194-1.39.521a19.643,19.643,0,0,0-3.2,1.563,20.109,20.109,0,0,0-2.869,2.119c-.684.6-1.077,1.02-1.1.993s.075-.124.243-.322a10.618,10.618,0,0,1,.75-.79,16.559,16.559,0,0,1,2.86-2.207,16.848,16.848,0,0,1,3.267-1.518,10.216,10.216,0,0,1,1.051-.3,1.263,1.263,0,0,1,.388-.059Z" transform="translate(-85.116 -136.967)" fill="#fafafa"/>
        <path id="Path_7606" data-name="Path 7606" d="M121.7,173.369a4.684,4.684,0,0,1-.724-.945,16.138,16.138,0,0,1-1.324-2.534,15.89,15.89,0,0,1-.852-2.737,4.511,4.511,0,0,1-.154-1.174,8.155,8.155,0,0,1,.313,1.134,22.078,22.078,0,0,0,.883,2.688,22.573,22.573,0,0,0,1.262,2.538,9.267,9.267,0,0,1,.6,1.03Z" transform="translate(-94.265 -130.498)" fill="#263238"/>
        <path id="Path_7607" data-name="Path 7607" d="M123.724,89.974a9.711,9.711,0,0,0-.843,8.3c.441,1.214,1.148,2.41,1.02,3.7s-1.134,2.565-.781,3.836c.212.755.856,1.324,1.108,2.057a5.708,5.708,0,0,1-.154,2.719c-.353,2.313.388,4.639.569,6.97s-.441,5.063-2.525,6.078a1.817,1.817,0,0,1-1.982-.075c-.671-.6-.486-1.673-.3-2.556,1.827-8.828-3.818-17.445-2.529-26.38a10.167,10.167,0,0,1,2.035-4.856c1.029-1,3.885-.883,4.856.177" transform="translate(-93.406 -87.546)" fill="#263238"/>
        <path id="Path_7608" data-name="Path 7608" d="M112.39,114.762a9.326,9.326,0,0,0,.667-.945,8.559,8.559,0,0,0,1.152-2.891,8.793,8.793,0,0,0,.137-2.145,22.726,22.726,0,0,1-.093-2.512,5.43,5.43,0,0,1,.252-1.351,7.53,7.53,0,0,1,.609-1.3c.494-.834,1.117-1.611,1.691-2.441a6.7,6.7,0,0,0,1.2-2.649,8.259,8.259,0,0,0-.154-2.706,10.289,10.289,0,0,1-.194-2.507,8.435,8.435,0,0,1,.441-2.154,8.188,8.188,0,0,1,1.563-2.75,5.738,5.738,0,0,1,.6-.614,1.183,1.183,0,0,1,.23-.19,9.649,9.649,0,0,0-.764.883,8.475,8.475,0,0,0-1.863,4.856,10.051,10.051,0,0,0,.216,2.463,8.387,8.387,0,0,1,.168,2.781,6.944,6.944,0,0,1-1.236,2.724c-.578.843-1.2,1.616-1.686,2.428a6.884,6.884,0,0,0-.592,1.254,5.116,5.116,0,0,0-.252,1.3,23.925,23.925,0,0,0,.071,2.485,8.828,8.828,0,0,1-.168,2.185,8.273,8.273,0,0,1-1.236,2.909,6.414,6.414,0,0,1-.53.68,1.411,1.411,0,0,1-.229.207Z" transform="translate(-90.768 -86.723)" fill="#455a64"/>
        <path id="Path_7609" data-name="Path 7609" d="M102.91,115.392a1.622,1.622,0,0,1,.137-.3c.11-.207.252-.481.441-.825.371-.72.923-1.766,1.466-3.09a13.468,13.468,0,0,0,1.086-4.887,9.5,9.5,0,0,0-.11-1.448c-.075-.494-.19-.993-.265-1.514a4.291,4.291,0,0,1,.035-1.624,2.9,2.9,0,0,1,.883-1.417,11.057,11.057,0,0,0,2.353-2.137,7.226,7.226,0,0,0,.781-2.83,11.062,11.062,0,0,1,.609-2.649A9.574,9.574,0,0,1,113.9,88.16a7.388,7.388,0,0,1,.808-.472,1.325,1.325,0,0,1,.3-.132,10.892,10.892,0,0,0-1.055.68,9.645,9.645,0,0,0-2.37,2.423,9.38,9.38,0,0,0-1.077,2.079,11.233,11.233,0,0,0-.574,2.649,7.372,7.372,0,0,1-.8,2.922,12.251,12.251,0,0,1-2.388,2.207,2.7,2.7,0,0,0-.834,1.324,4.088,4.088,0,0,0-.031,1.536c.071.508.181,1.011.256,1.51a8.958,8.958,0,0,1,.106,1.483,13.4,13.4,0,0,1-1.143,4.966,29.61,29.61,0,0,1-1.536,3.09l-.468.693a1.523,1.523,0,0,1-.181.274Z" transform="translate(-85.473 -86.695)" fill="#455a64"/>
      </g>
      <g id="Group_7627" data-name="Group 7627" transform="translate(168.52 98.43)">
        <path id="Path_7610" data-name="Path 7610" d="M424.347,338.809a1.034,1.034,0,0,1,.079-.185c.062-.132.146-.309.247-.534a13.054,13.054,0,0,0,.737-2.136,18.823,18.823,0,0,0-.062-8.241,44.547,44.547,0,0,0-1.532-5.54c-.645-1.964-1.4-4.048-2.013-6.3a24.445,24.445,0,0,1-.993-7.248,28.419,28.419,0,0,1,1.686-7.672,36.9,36.9,0,0,0,1.951-7.553,11.525,11.525,0,0,0-1.386-6.974c-1.1-2.035-2.494-3.779-3.531-5.58a19.418,19.418,0,0,1-2.123-5.368,20.008,20.008,0,0,1-.137-8.308,15.306,15.306,0,0,1,.883-2.935,1.139,1.139,0,0,1-.053.194l-.177.561a22.562,22.562,0,0,0-.539,2.207,20.3,20.3,0,0,0,.216,8.25,19.2,19.2,0,0,0,2.132,5.3c1.037,1.766,2.432,3.531,3.562,5.575a11.759,11.759,0,0,1,1.426,7.12,37.071,37.071,0,0,1-1.96,7.61,28.208,28.208,0,0,0-1.677,7.6,24.113,24.113,0,0,0,.971,7.178c.6,2.242,1.346,4.326,1.986,6.3a43.384,43.384,0,0,1,1.5,5.571,18.922,18.922,0,0,1,0,8.3,12.291,12.291,0,0,1-.79,2.132l-.274.525a.911.911,0,0,1-.129.151Z" transform="translate(-411.511 -264.23)" fill="#263238"/>
        <path id="Path_7611" data-name="Path 7611" d="M425.318,292.238s-2.11-6.758,1.677-10.713a.234.234,0,0,1,.4.115C427.6,282.756,427.852,286.155,425.318,292.238Z" transform="translate(-415.885 -273.848)" fill="#089447"/>
        <path id="Path_7612" data-name="Path 7612" d="M427.228,286.72a6.474,6.474,0,0,1-.141,1.245c-.141.861-.3,1.867-.481,2.98s-.34,2.123-.477,2.98a7.435,7.435,0,0,1-.221,1.236,5.233,5.233,0,0,1,.026-1.254c.071-.773.207-1.832.4-3s.4-2.207.561-2.971A5.476,5.476,0,0,1,427.228,286.72Z" transform="translate(-416.527 -276.792)" fill="#263238"/>
        <path id="Path_7613" data-name="Path 7613" d="M431.68,331s1.293-6.961,6.493-8.683a.234.234,0,0,1,.3.291C438.129,323.677,436.765,326.8,431.68,331Z" transform="translate(-419.766 -296.667)" fill="#089447"/>
        <path id="Path_7614" data-name="Path 7614" d="M436.712,326.38a6.538,6.538,0,0,1-.706,1.037l-1.823,2.406-1.81,2.415a7.065,7.065,0,0,1-.773.984,5.226,5.226,0,0,1,.618-1.1c.441-.649,1.042-1.523,1.766-2.463s1.382-1.766,1.88-2.366a5.682,5.682,0,0,1,.848-.913Z" transform="translate(-419.721 -298.945)" fill="#263238"/>
        <path id="Path_7615" data-name="Path 7615" d="M428.433,368.571s-.786-7.036,3.69-10.193a.23.23,0,0,1,.371.19C432.481,359.7,432.079,363.084,428.433,368.571Z" transform="translate(-417.923 -316.792)" fill="#089447"/>
        <path id="Path_7616" data-name="Path 7616" d="M431.341,363.26a5.88,5.88,0,0,1-.375,1.2l-1.042,2.834c-.388,1.059-.737,2.017-1.033,2.834a7.267,7.267,0,0,1-.441,1.17,5.15,5.15,0,0,1,.274-1.227c.216-.742.552-1.766.962-2.869s.812-2.1,1.117-2.807a6.152,6.152,0,0,1,.538-1.135Z" transform="translate(-417.962 -319.546)" fill="#263238"/>
        <path id="Path_7617" data-name="Path 7617" d="M437.346,408.534s-.53-7.063,4.052-10.056a.234.234,0,0,1,.366.2C441.712,399.815,441.191,403.183,437.346,408.534Z" transform="translate(-422.921 -339.194)" fill="#089447"/>
        <path id="Path_7618" data-name="Path 7618" d="M440.452,403.29a6.121,6.121,0,0,1-.419,1.183c-.327.8-.715,1.766-1.143,2.794s-.8,1.986-1.13,2.794a6.879,6.879,0,0,1-.5,1.152,5.3,5.3,0,0,1,.322-1.218c.243-.733.614-1.739,1.064-2.829s.883-2.07,1.214-2.768a5.9,5.9,0,0,1,.592-1.108Z" transform="translate(-422.883 -341.905)" fill="#263238"/>
        <path id="Path_7619" data-name="Path 7619" d="M411.086,281.059s-6.259-3.284-6.4-8.753a.238.238,0,0,1,.366-.2C405.988,272.747,408.574,274.972,411.086,281.059Z" transform="translate(-404.69 -268.607)" fill="#089447"/>
        <path id="Path_7620" data-name="Path 7620" d="M407.64,276.87a6.079,6.079,0,0,1,.781.984c.512.7,1.108,1.532,1.766,2.445l1.766,2.437a6.915,6.915,0,0,1,.715,1.029,5.191,5.191,0,0,1-.861-.914c-.5-.591-1.152-1.439-1.841-2.4s-1.293-1.845-1.708-2.494a6.022,6.022,0,0,1-.618-1.087Z" transform="translate(-406.338 -271.29)" fill="#263238"/>
        <path id="Path_7621" data-name="Path 7621" d="M425.7,314.421s-6.462-2.891-6.917-8.352a.234.234,0,0,1,.353-.221C420.1,306.435,422.814,308.492,425.7,314.421Z" transform="translate(-412.559 -287.458)" fill="#089447"/>
        <path id="Path_7622" data-name="Path 7622" d="M422,310.47a5.987,5.987,0,0,1,.839.931l1.916,2.335,1.92,2.326a7.057,7.057,0,0,1,.777.984,5.374,5.374,0,0,1-.918-.861c-.53-.565-1.236-1.368-1.982-2.282s-1.4-1.766-1.858-2.388A5.676,5.676,0,0,1,422,310.47Z" transform="translate(-414.359 -290.059)" fill="#263238"/>
        <path id="Path_7623" data-name="Path 7623" d="M422.329,348.41s-4.414-5.518-2.353-10.594a.234.234,0,0,1,.415-.035C421,338.739,422.475,341.811,422.329,348.41Z" transform="translate(-412.922 -305.252)" fill="#089447"/>
        <path id="Path_7624" data-name="Path 7624" d="M421.68,343.08a6.012,6.012,0,0,1,.327,1.214c.185.848.4,1.845.64,2.949s.463,2.1.649,2.944a6.917,6.917,0,0,1,.243,1.232,5.3,5.3,0,0,1-.441-1.183c-.216-.746-.481-1.766-.728-2.94s-.441-2.207-.565-2.966a5.731,5.731,0,0,1-.124-1.249Z" transform="translate(-414.18 -308.274)" fill="#263238"/>
        <path id="Path_7625" data-name="Path 7625" d="M427.424,394.077s-6.414-3-6.776-8.462a.234.234,0,0,1,.358-.221C421.955,386,424.635,388.1,427.424,394.077Z" transform="translate(-413.603 -331.889)" fill="#089447"/>
        <path id="Path_7626" data-name="Path 7626" d="M423.77,390.06a6.57,6.57,0,0,1,.821.949l1.876,2.362,1.88,2.362a6.923,6.923,0,0,1,.759,1,5.2,5.2,0,0,1-.883-.883c-.525-.574-1.214-1.391-1.947-2.318s-1.368-1.788-1.819-2.419a5.4,5.4,0,0,1-.687-1.053Z" transform="translate(-415.348 -334.516)" fill="#263238"/>
        <path id="Path_7627" data-name="Path 7627" d="M449.449,342.07v.6c0,.441-.044,1-.075,1.717-.079,1.51-.2,3.615-.335,6.131h0a23.308,23.308,0,0,1-3.531,8.158c-1.285,2.031-2.649,3.876-3.8,5.593a39.446,39.446,0,0,0-2.816,4.723,19.82,19.82,0,0,0-1.324,3.452c-.11.419-.2.75-.247.976a2.055,2.055,0,0,1-.093.344,1.609,1.609,0,0,1,.044-.353c.031-.23.1-.565.2-.993a18.045,18.045,0,0,1,1.258-3.509,37.914,37.914,0,0,1,2.812-4.754c1.157-1.73,2.494-3.58,3.774-5.6a24.512,24.512,0,0,0,3.531-8.06h0c.177-2.512.322-4.613.441-6.123.057-.715.106-1.285.141-1.713a3.355,3.355,0,0,1,.044-.441.584.584,0,0,1-.024-.148Z" transform="translate(-422.866 -307.71)" fill="#263238"/>
        <path id="Path_7628" data-name="Path 7628" d="M454.462,364.724s2.715-6.533-.7-10.819a.234.234,0,0,0-.411.079C453.049,355.079,452.489,358.438,454.462,364.724Z" transform="translate(-431.697 -314.269)" fill="#089447"/>
        <path id="Path_7629" data-name="Path 7629" d="M455.118,359.19a5.733,5.733,0,0,1,.216,1.236c.1.768.2,1.832.287,3.011s.124,2.247.124,3.024a5.119,5.119,0,0,1-.075,1.254,6.63,6.63,0,0,1-.11-1.249c-.057-.883-.128-1.885-.2-3.01s-.146-2.145-.207-3.01a6.379,6.379,0,0,1-.031-1.254Z" transform="translate(-432.848 -317.272)" fill="#263238"/>
        <path id="Path_7630" data-name="Path 7630" d="M434.538,400.55s2.176-6.736-1.576-10.727a.234.234,0,0,0-.4.11C432.348,391.047,432.061,394.446,434.538,400.55Z" transform="translate(-420.182 -334.341)" fill="#089447"/>
        <path id="Path_7631" data-name="Path 7631" d="M434.52,395a5.412,5.412,0,0,1,.318,1.218c.159.755.349,1.81.53,2.975s.3,2.229.371,3a5.3,5.3,0,0,1,.022,1.258,7.537,7.537,0,0,1-.212-1.236c-.128-.861-.278-1.867-.441-2.984s-.322-2.123-.441-2.984A6.386,6.386,0,0,1,434.52,395Z" transform="translate(-421.352 -337.275)" fill="#263238"/>
        <path id="Path_7632" data-name="Path 7632" d="M464.1,348.143s5.8-4.061,5.213-9.508a.234.234,0,0,0-.388-.15C468.082,339.244,465.822,341.769,464.1,348.143Z" transform="translate(-437.875 -305.674)" fill="#089447"/>
        <path id="Path_7633" data-name="Path 7633" d="M468.335,343.51a5.44,5.44,0,0,1-.481,1.161c-.331.7-.812,1.651-1.373,2.693s-1.1,1.964-1.514,2.618A5.237,5.237,0,0,1,464.23,351a6.5,6.5,0,0,1,.574-1.112c.415-.764.9-1.655,1.443-2.648l1.439-2.649a6.457,6.457,0,0,1,.649-1.077Z" transform="translate(-437.948 -308.514)" fill="#263238"/>
        <path id="Path_7634" data-name="Path 7634" d="M442.51,390.8s6.992-1.09,8.864-6.237a.234.234,0,0,0-.278-.309C450.005,384.577,446.845,385.835,442.51,390.8Z" transform="translate(-425.815 -331.266)" fill="#089447"/>
        <path id="Path_7635" data-name="Path 7635" d="M449.588,388.05a5.669,5.669,0,0,1-.945.825c-.6.486-1.457,1.13-2.415,1.819s-1.854,1.276-2.516,1.682a5.107,5.107,0,0,1-1.112.587,6.816,6.816,0,0,1,1.011-.746l2.463-1.739,2.459-1.766a5.866,5.866,0,0,1,1.055-.662Z" transform="translate(-425.866 -333.393)" fill="#263238"/>
        <path id="Path_7636" data-name="Path 7636" d="M424.809,428.25l-2.039,13.728h12.713l-1.647-13.728Z" transform="translate(-414.789 -355.848)" fill="#455a64"/>
        <path id="Path_7637" data-name="Path 7637" d="M436.024,437.693a99.276,99.276,0,0,1-10.254,0,99.362,99.362,0,0,1,10.254,0Z" transform="translate(-416.465 -361.039)" fill="#263238"/>
        <path id="Path_7638" data-name="Path 7638" d="M436.154,440.192q-5.294.265-10.594,0Q430.854,439.927,436.154,440.192Z" transform="translate(-416.347 -362.444)" fill="#263238"/>
      </g>
      <g id="Group_7629" data-name="Group 7629" transform="translate(79.034 37.598)">
        <path id="Path_7639" data-name="Path 7639" d="M305.4,126.474h-.349a8.488,8.488,0,0,0-1.006,0,11.31,11.31,0,0,0-3.765.883,11.561,11.561,0,0,0-4.776,3.721,10.432,10.432,0,0,0-1.669,3.412A11.477,11.477,0,0,0,295,143.16a9.811,9.811,0,0,0,1.5,2,8.158,8.158,0,0,0,2.031,1.589,4.988,4.988,0,0,0,2.547.64,3.66,3.66,0,0,0,2.468-1,3.562,3.562,0,0,0,.984-2.543,4.688,4.688,0,0,0-.883-2.706,9.223,9.223,0,0,0-4.97-3.275,12.205,12.205,0,0,0-6.268-.088,13.134,13.134,0,0,0-3.019,1.2,10.878,10.878,0,0,0-2.591,2.035q-.292.3-.552.627l-.5.671a12.617,12.617,0,0,0-.812,1.474,11.963,11.963,0,0,0-.958,3.253,12.333,12.333,0,0,0,.883,6.621,10.227,10.227,0,0,0,4.26,4.856,7.062,7.062,0,0,0,3.019.914,5.332,5.332,0,0,0,2.98-.715,4.657,4.657,0,0,0,2.013-2.207,4,4,0,0,0,.075-2.9,5.839,5.839,0,0,0-1.66-2.348,7.6,7.6,0,0,0-2.441-1.417,9.46,9.46,0,0,0-5.377-.093,10.475,10.475,0,0,0-4.414,2.459,10.082,10.082,0,0,0-2.529,3.915,11.344,11.344,0,0,0,.119,7.946,12.046,12.046,0,0,0,3.633,4.856,13.07,13.07,0,0,0,3.342,1.947c.415.154.737.269.958.331l.327.106s-.115-.022-.336-.084a9.5,9.5,0,0,1-.962-.313A12.5,12.5,0,0,1,284.486,169a12.1,12.1,0,0,1-3.7-4.878,11.477,11.477,0,0,1-.146-8.029,10.122,10.122,0,0,1,2.556-3.973,10.677,10.677,0,0,1,4.48-2.516,9.663,9.663,0,0,1,5.491.088,7.735,7.735,0,0,1,2.512,1.452,6,6,0,0,1,1.722,2.432,4.229,4.229,0,0,1-.044,3.041,4.944,4.944,0,0,1-2.106,2.3,5.571,5.571,0,0,1-3.09.75,7.178,7.178,0,0,1-3.09-.945,10.436,10.436,0,0,1-4.366-4.94,12.581,12.581,0,0,1-.909-6.745,12.3,12.3,0,0,1,.98-3.32,12.763,12.763,0,0,1,.83-1.5l.512-.684a6.6,6.6,0,0,1,.561-.645,11.182,11.182,0,0,1,2.649-2.075,13.3,13.3,0,0,1,3.09-1.218,12.422,12.422,0,0,1,6.387.093,9.462,9.462,0,0,1,5.085,3.368,4.856,4.856,0,0,1,.927,2.825,3.77,3.77,0,0,1-1.046,2.688,3.862,3.862,0,0,1-2.6,1.046,5.133,5.133,0,0,1-2.649-.667,8.2,8.2,0,0,1-2.075-1.629,10.153,10.153,0,0,1-1.523-2.035,11.64,11.64,0,0,1-1.165-8.828,10.55,10.55,0,0,1,1.7-3.446,11.618,11.618,0,0,1,4.856-3.73,11.036,11.036,0,0,1,3.792-.83,7.714,7.714,0,0,1,1.015,0Z" transform="translate(-245.543 -126.422)" fill="#263238"/>
        <rect id="Rectangle_2005" data-name="Rectangle 2005" width="61.892" height="47.736" transform="translate(12.704 44.221)" fill="#ef4626"/>
        <path id="Path_7640" data-name="Path 7640" d="M230.75,226.6l11.433,10.665h60.842L292.642,226.6Z" transform="translate(-218.046 -182.379)" fill="#c63013"/>
        <path id="Path_7641" data-name="Path 7641" d="M230.75,226.46l61.91-.11h.049l.035.031,10.276,10.554.106.11.19.194h-.274L242.2,237.19h-.026L230.75,226.46l11.477,10.594h-.049l60.842-.044-.079.194-.11-.11L292.558,226.54l.079.035Z" transform="translate(-218.046 -182.239)" fill="#263238"/>
        <path id="Path_7642" data-name="Path 7642" d="M271.309,276.47a1.28,1.28,0,1,0,.093,0" transform="translate(-240.012 -210.235)" fill="#f5f5f5"/>
        <path id="Path_7643" data-name="Path 7643" d="M304.447,276.47a1.276,1.276,0,1,0,.1,0" transform="translate(-258.526 -210.235)" fill="#f5f5f5"/>
        <path id="Path_7644" data-name="Path 7644" d="M287.26,294.237a9.145,9.145,0,0,0-1.227-2.741,8.054,8.054,0,0,0-2.34-2.242,7.138,7.138,0,0,0-7.562-.207,8.15,8.15,0,0,0-2.459,2.11,9.05,9.05,0,0,0-1.373,2.675.909.909,0,0,1,.035-.212,4.918,4.918,0,0,1,.163-.587,7.063,7.063,0,0,1,1.046-1.973,8.032,8.032,0,0,1,2.485-2.207,7.261,7.261,0,0,1,7.778.212,8.008,8.008,0,0,1,2.357,2.331,7.064,7.064,0,0,1,.94,2.031,5.185,5.185,0,0,1,.128.6,1.222,1.222,0,0,1,.026.216Z" transform="translate(-241.255 -216.578)" fill="#f5f5f5"/>
        <path id="Path_7645" data-name="Path 7645" d="M231.07,227.79l10.947,13.878h50.8V237.93H242.362Z" transform="translate(-218.225 -183.044)" opacity="0.5"/>
        <path id="Path_7646" data-name="Path 7646" d="M343.165,287.58c-.062,0-.115-8.3-.115-18.54s.053-18.54.115-18.54.119,8.3.119,18.54S343.231,287.58,343.165,287.58Z" transform="translate(-280.774 -195.729)" fill="#263238"/>
        <rect id="Rectangle_2006" data-name="Rectangle 2006" width="5.456" height="6.167" transform="translate(66.655 81.027)" fill="#f5f5f5"/>
        <path id="Path_7647" data-name="Path 7647" d="M214.674,226.6l-12.7,10.665h12.7Z" transform="translate(-201.97 -182.379)" fill="#d63b35"/>
        <g id="Group_7628" data-name="Group 7628" transform="translate(0 44.221)">
          <path id="Path_7648" data-name="Path 7648" d="M214.674,226.6l-12.7,10.665h12.7Z" transform="translate(-201.97 -226.6)" fill="#c63013"/>
        </g>
        <rect id="Rectangle_2007" data-name="Rectangle 2007" width="71.162" height="54.887" transform="translate(5.262 91.957)" fill="#d63b35"/>
        <rect id="Rectangle_2008" data-name="Rectangle 2008" width="71.162" height="54.887" transform="translate(5.262 91.957)" fill="#c63013"/>
        <path id="Path_7649" data-name="Path 7649" d="M334.565,389.054c-.062,0-.115-12.232-.115-27.32s.053-27.324.115-27.324.115,12.232.115,27.324S334.627,389.054,334.565,389.054Z" transform="translate(-275.97 -242.599)" fill="#263238"/>
        <rect id="Rectangle_2009" data-name="Rectangle 2009" width="5.456" height="6.167" transform="translate(64.934 134.351)" fill="#f5f5f5"/>
        <rect id="Rectangle_2010" data-name="Rectangle 2010" width="8.082" height="11.711" transform="translate(26.971 92.102)" fill="#f5f5f5"/>
        <rect id="Rectangle_2011" data-name="Rectangle 2011" width="8.082" height="11.711" transform="translate(26.971 134.969)" fill="#f5f5f5"/>
        <path id="Path_7650" data-name="Path 7650" d="M284.434,334.656h-.72l-2.053.022-7.562.035-24.936.057-24.945-.031-7.557-.035-2.053-.022h0l2.053-.022,7.557-.035,24.945-.035,24.936.035,7.562.035,2.053.022h.534Z" transform="translate(-208.628 -242.7)" fill="#263238"/>
      </g>
      <g id="Group_7630" data-name="Group 7630" transform="translate(5.328 8.691)">
        <path id="Path_7651" data-name="Path 7651" d="M62.552,86.774,54.8,84.867h.057a12.867,12.867,0,0,1-6.688,2.008,14.068,14.068,0,0,1-4.145-.6A13,13,0,0,1,35.1,75.482,12.8,12.8,0,0,1,38.428,65.14a13.277,13.277,0,0,1,2.247-1.969c.415-.26.83-.53,1.262-.755L42.6,62.1l.327-.159.344-.124A12.955,12.955,0,0,1,60.208,69.66a13.446,13.446,0,0,1,.715,4.185,12.841,12.841,0,0,1-1.858,6.714v-.071c2.154,3.889,3.24,5.853,3.483,6.286-.252-.441-1.377-2.37-3.606-6.22v-.071a12.74,12.74,0,0,0,1.766-6.621,13.145,13.145,0,0,0-.724-4.114A12.711,12.711,0,0,0,43.36,62.067l-.335.119-.322.159-.644.309c-.441.225-.83.486-1.24.742a13.114,13.114,0,0,0-2.207,1.916,12.576,12.576,0,0,0-3.271,10.153,12.77,12.77,0,0,0,4.781,8.489A12.568,12.568,0,0,0,44.1,86.073a13.755,13.755,0,0,0,4.074.614,12.748,12.748,0,0,0,6.621-1.938h.075Z" transform="translate(-34.997 -60.935)" fill="#263238"/>
        <path id="Path_7652" data-name="Path 7652" d="M62,76.188l.393,6.489a1.051,1.051,0,0,0,.984.984h0a1.055,1.055,0,0,0,1.108-.936l.72-6.5a.825.825,0,0,0-.834-.914H62.792a.821.821,0,0,0-.795.878Z" transform="translate(-50.077 -68.964)" fill="#ef4626"/>
        <path id="Path_7653" data-name="Path 7653" d="M65.1,99.808a1.58,1.58,0,1,1-.086-1.208A1.58,1.58,0,0,1,65.1,99.808Z" transform="translate(-50.093 -81.486)" fill="#ef4626"/>
      </g>
    </g>
    <rect id="Rectangle_2012" data-name="Rectangle 2012" width="199.999" height="199.999" transform="translate(138 325)" fill="none"/>
  </g>
</svg>
