<svg xmlns="http://www.w3.org/2000/svg" width="108.082" height="103.59" viewBox="0 0 108.082 103.59">
  <g id="Warning_Vector" data-name="Warning Vector" transform="translate(-23.186 -35.741)">
    <g id="Group_7367" data-name="Group 7367" transform="translate(23.185 60.701)">
      <path id="Path_15936" data-name="Path 15936" d="M1257.282,1204.035l-4.12,48.983s-.432,2.969,1.777,2.974c3.631.009,18.074,0,18.074,0s-2.733-.618-2.7-2.009c.039-1.639,4.815-50.412,4.815-50.412Z" transform="translate(-1212.549 -1177.38)" fill="#232323"/>
      <path id="Path_15937" data-name="Path 15937" d="M1287.53,1245.273c-.714,0-14.7.026-18.233-.02-1.541-.019-1.812-1.37-1.824-2.245a4.383,4.383,0,0,1,.047-.729l.107-1.273.273-3.245.241-2.867.31-3.684.261-3.109,2.927-34.805,17.847-.463s-2.011,20.411-3.434,35.269c-.159,1.655-.31,3.243-.45,4.724q-.068.71-.131,1.386c-.132,1.406-.253,2.7-.358,3.836-.055.6-.106,1.159-.153,1.67-.181,2-.288,3.283-.289,3.526a2.072,2.072,0,0,0,.035.4C1285,1245.2,1287.262,1245.273,1287.53,1245.273Z" transform="translate(-1225.705 -1167.531)" fill="#636363"/>
      <path id="Path_15938" data-name="Path 15938" d="M779.653,887.135l10.034,40.306,1.374,5.52,4.674,18.774h86.828l-17.226-64.6Z" transform="translate(-778.262 -887.135)" fill="#313131"/>
      <path id="Path_15939" data-name="Path 15939" d="M764.24,887.134l-1.391.464,15.624,65.539,1.849-1.4Z" transform="translate(-762.849 -887.134)" fill="#636363"/>
      <path id="Path_15940" data-name="Path 15940" d="M951.617,1669.036h86.293l2.383-1.4H953.466Z" transform="translate(-935.993 -1603.033)" fill="#232323"/>
      <rect id="Rectangle_4186" data-name="Rectangle 4186" width="18.684" height="0.888" transform="translate(64.611 78.63) rotate(180)" fill="#636363"/>
      <path id="Path_15941" data-name="Path 15941" d="M1290.3,1684.568l-.1.679-17.571,3.55.241-2.867.115-1.362Z" transform="translate(-1230.443 -1618.566)" fill="#232323"/>
      <path id="Path_15942" data-name="Path 15942" d="M1287.536,1764.856c-.714,0-14.7.026-18.233-.02-1.541-.019-1.812-1.37-1.824-2.245l17.488-3.291c-.182,2-.288,3.283-.289,3.527a2.056,2.056,0,0,0,.035.4C1285,1764.785,1287.268,1764.856,1287.536,1764.856Z" transform="translate(-1225.711 -1687.113)" fill="#313131" opacity="0.4"/>
      <path id="Path_15943" data-name="Path 15943" d="M779.651,887.134h85.684l13.9,51.918H792.576Z" transform="translate(-778.26 -887.134)" fill="#313131"/>
      <path id="Path_15944" data-name="Path 15944" d="M914.525,967.624H834.3l-2.867-11.42-1.109-4.419-.452-1.8-2.946-11.736-.153-.611-1.557-6.2-.7-2.776-.594-2.368-1.394-5.551H901.6l1.53,5.551.652,2.368.765,2.776,5.041,18.287h0l.427,1.549.2.719,3.481,12.625Z" transform="translate(-817.59 -917.955)" fill="#f5f5f5"/>
      <path id="Path_15945" data-name="Path 15945" d="M903.133,926.285H823.927l-1.393-5.551H901.6Z" transform="translate(-817.594 -917.953)" fill="#c1c1c1"/>
      <g id="Group_7366" data-name="Group 7366" transform="translate(8.19 4.596)">
        <path id="Path_15946" data-name="Path 15946" d="M861.817,943.354a.524.524,0,0,1,.521-.694.948.948,0,0,1,.867.694.524.524,0,0,1-.521.694A.948.948,0,0,1,861.817,943.354Z" transform="translate(-861.795 -942.66)" fill="#fafafa"/>
        <path id="Path_15947" data-name="Path 15947" d="M889.675,943.354a.524.524,0,0,1,.521-.694.948.948,0,0,1,.867.694.524.524,0,0,1-.521.694A.948.948,0,0,1,889.675,943.354Z" transform="translate(-887.347 -942.66)" fill="#fafafa"/>
        <path id="Path_15948" data-name="Path 15948" d="M919.672,943.354a.524.524,0,0,1,.521-.694.948.948,0,0,1,.867.694.524.524,0,0,1-.521.694A.948.948,0,0,1,919.672,943.354Z" transform="translate(-914.862 -942.66)" fill="#fafafa"/>
      </g>
    </g>
    <g id="Group_7369" data-name="Group 7369" transform="translate(42.284 35.741)">
      <path id="Union_255" data-name="Union 255" d="M1.789,81.293A9.538,9.538,0,0,1,.85,71.8L30.383,5.7A9.624,9.624,0,0,1,47.176,4.285L87.352,64.508a9.624,9.624,0,0,1-7.2,14.931l-69.71,5.873c-.28.024-.558.035-.835.035A9.525,9.525,0,0,1,1.789,81.293Z" transform="translate(0 0)" fill="#f93432"/>
      <g id="Group_7368" data-name="Group 7368" transform="translate(34.082 17.219)">
        <path id="Path_15953" data-name="Path 15953" d="M1419.134,844.333a4.645,4.645,0,0,1,.2-1.844,4.255,4.255,0,0,1,.869-1.526,4.565,4.565,0,0,1,1.459-1.082,5.692,5.692,0,0,1,2-.513,5.822,5.822,0,0,1,2.071.17,4.538,4.538,0,0,1,1.635.821,4.258,4.258,0,0,1,1.112,1.359,4.653,4.653,0,0,1,.5,1.785,4.546,4.546,0,0,1-.2,1.829,4.288,4.288,0,0,1-.87,1.511,4.52,4.52,0,0,1-1.474,1.083,5.818,5.818,0,0,1-2.013.514,5.689,5.689,0,0,1-2.056-.171,4.549,4.549,0,0,1-1.619-.822,4.283,4.283,0,0,1-1.111-1.344A4.532,4.532,0,0,1,1419.134,844.333Zm7.851-9.187-7.315.616-3.142-24.906,9.387-.791Z" transform="translate(-1416.528 -810.065)" fill="#fff"/>
      </g>
      <text id="warning" transform="matrix(0.996, -0.087, 0.087, 0.996, 11.361, 75.703)" fill="#fff" font-size="12" font-family="NeoSansPro-Medium, Neo Sans Pro" font-weight="500" letter-spacing="0.02em"><tspan x="0" y="0">WARNING</tspan></text>
    </g>
  </g>
</svg>
