<svg xmlns="http://www.w3.org/2000/svg" xmlns:xlink="http://www.w3.org/1999/xlink" width="33.732" height="31.176" viewBox="0 0 33.732 31.176"><defs><linearGradient id="a" x1="-2.901" y1="0.763" x2="-2.901" y2="1.536" gradientUnits="objectBoundingBox"><stop offset="0" stop-color="#ffab00"/><stop offset="1" stop-color="#e15700"/></linearGradient><linearGradient id="b" x1="0.466" y1="0.562" x2="0.832" y2="0.245" gradientUnits="objectBoundingBox"><stop offset="0" stop-color="#fff"/><stop offset="0.469" stop-color="#a6a6a6"/><stop offset="1"/></linearGradient><linearGradient id="c" x1="0.275" y1="0.344" x2="0.69" y2="0.76" gradientUnits="objectBoundingBox"><stop offset="0"/><stop offset="0.539" stop-color="#a6a6a6"/><stop offset="1" stop-color="#fff"/></linearGradient><linearGradient id="d" x1="0.223" y1="0.5" x2="0.779" y2="0.5" gradientUnits="objectBoundingBox"><stop offset="0" stop-color="#ff9601"/><stop offset="1" stop-color="#ff7503"/></linearGradient></defs><path d="M1247.415,910.172l-3.163-10.4a.826.826,0,0,1,1.177-1.043l9.942,4.393c.767.339,1.072,1.342.549,1.806l-6.778,6.006C1248.619,911.4,1247.66,910.975,1247.415,910.172Z" transform="translate(-1244.2 -898.632)" fill="url(#a)"/><path d="M1724.715,910.172l3.163-10.4a.826.826,0,0,0-1.177-1.043l-9.942,4.393c-.767.339-1.072,1.342-.549,1.806l6.778,6.006C1723.512,911.4,1724.471,910.975,1724.715,910.172Z" transform="translate(-1694.198 -898.632)" fill="#e54e01"/><path d="M1339.081,994.13l-11.891,11.891a1.85,1.85,0,0,1-2.608,0l-11.891-11.891a1.851,1.851,0,0,1-.194-2.38c.224-.313.451-.623.661-.946l7.274-11.173c.717-.717,10.19-.717,10.907,0l7.274,11.173c.21.323.437.633.661.946A1.851,1.851,0,0,1,1339.081,994.13Z" transform="translate(-1309.02 -975.383)" fill="#ffc823"/><path d="M1611.3,1006.028l11.891-11.891a1.851,1.851,0,0,0,.194-2.38c-.224-.313-.451-.623-.661-.946l-7.273-11.173c-.359-.359-2.906-.538-5.454-.538v27.465A1.839,1.839,0,0,0,1611.3,1006.028Z" transform="translate(-1593.134 -975.391)" fill="#e54e01"/><path d="M1725.27,978.134a9.4,9.4,0,0,0-5.974-6.354l-2.533,1.119c-.767.339-1.072,1.342-.549,1.806l6.778,6.006c.523.463,1.482.04,1.726-.763Z" transform="translate(-1694.202 -968.408)" opacity="0.6" fill="url(#b)" style="mix-blend-mode:soft-light;isolation:isolate"/><path d="M1310.852,973.266l-2.492-1.1a9.374,9.374,0,0,0-6,6.395l.534,1.755c.244.8,1.2,1.226,1.726.763l6.778-6.006C1311.924,974.609,1311.619,973.605,1310.852,973.266Z" transform="translate(-1299.68 -968.775)" opacity="0.45" fill="url(#c)" style="mix-blend-mode:soft-light;isolation:isolate"/><path d="M1317.352,988.42l11.208,16.218a1.844,1.844,0,0,0,3.195,0l11.208-16.218c2.662-4.611-2.51-10.374-7.834-10.374h-9.942C1319.862,978.046,1314.69,983.809,1317.352,988.42Z" transform="translate(-1313.291 -974.384)" fill="#ffaa01"/><path d="M1614.971,978H1610v27.516a1.827,1.827,0,0,0,1.6-.922l11.208-16.219C1625.467,983.764,1620.3,978,1614.971,978Z" transform="translate(-1593.134 -974.341)" fill="#ff5f00"/><path d="M1715,1117.13l-1.69.233-2.062,5.755,4.1-5.4a.369.369,0,0,0-.344-.588Z" transform="translate(-1689.71 -1107.052)" fill="#592714"/><path d="M1419.341,1111.772l1.469.2,2.062,5.755-3.961-5.222a.461.461,0,0,1,.43-.735Z" transform="translate(-1410.766 -1101.94)" fill="#592714"/><path d="M1564.122,1508.306l.7-1.01a.932.932,0,0,0-.08-.061l-1.365-.935a1.618,1.618,0,0,0-1.7,0l-1.365.935c-.029.02-.055.04-.08.061l.7,1.01A1.844,1.844,0,0,0,1564.122,1508.306Z" transform="translate(-1545.658 -1478.052)" fill="#592714"/><path d="M1438.653,978.915a8.437,8.437,0,0,0-3.732-.917h-9.942a8.438,8.438,0,0,0-3.732.917l0,.007,8.106,23.006a.631.631,0,0,0,1.191,0l8.106-23.007Z" transform="translate(-1413.083 -974.339)" fill="url(#d)"/></svg>