<svg xmlns="http://www.w3.org/2000/svg" width="143.297" height="12.928" viewBox="0 0 143.297 12.928"><path d="M119.089,12.62a3.738,3.738,0,0,1-1.46-.957A4.521,4.521,0,0,1,116.664,10a7.491,7.491,0,0,1-.35-2.434v-2.2a7.491,7.491,0,0,1,.35-2.433,4.524,4.524,0,0,1,.965-1.665,3.75,3.75,0,0,1,1.46-.957,5.741,5.741,0,0,1,3.706,0,3.754,3.754,0,0,1,1.46.957,4.435,4.435,0,0,1,.957,1.665,7.678,7.678,0,0,1,.341,2.433v2.2A7.678,7.678,0,0,1,125.211,10a4.433,4.433,0,0,1-.957,1.665,3.742,3.742,0,0,1-1.46.957,5.736,5.736,0,0,1-3.706,0Zm.6-11.006a2.3,2.3,0,0,0-.959.692,3.294,3.294,0,0,0-.612,1.23,6.794,6.794,0,0,0-.212,1.827v2.2a6.8,6.8,0,0,0,.212,1.828,3.29,3.29,0,0,0,.612,1.23,2.3,2.3,0,0,0,.959.691,3.805,3.805,0,0,0,2.513,0,2.242,2.242,0,0,0,.951-.691,3.354,3.354,0,0,0,.6-1.23,6.8,6.8,0,0,0,.213-1.828v-2.2a6.793,6.793,0,0,0-.213-1.827,3.359,3.359,0,0,0-.6-1.23,2.243,2.243,0,0,0-.951-.692,3.81,3.81,0,0,0-2.513,0ZM88.443,12.928a4.282,4.282,0,0,1-2.724-.734,2.956,2.956,0,0,1-.913-2.442V3.176A2.956,2.956,0,0,1,85.719.735,4.285,4.285,0,0,1,88.443,0q.375,0,.845.009l.931.017q.461.009.872.026c.273.011.5.029.682.051A.189.189,0,0,1,91.9.188a.29.29,0,0,1,.043.153V1.2c0,.136-.063.205-.188.205h-3.3a5.087,5.087,0,0,0-1.093.094,1.316,1.316,0,0,0-.632.308,1.071,1.071,0,0,0-.3.547,3.768,3.768,0,0,0-.077.828V5.55H91.6a.331.331,0,0,1,.239.1.32.32,0,0,1,.1.237v.64a.318.318,0,0,1-.1.236.329.329,0,0,1-.239.1H86.36v2.88a3.824,3.824,0,0,0,.077.823,1.082,1.082,0,0,0,.3.558,1.321,1.321,0,0,0,.632.308,5.028,5.028,0,0,0,1.093.094h3.3c.125,0,.188.068.188.2V12.6a.289.289,0,0,1-.043.154.186.186,0,0,1-.129.085,5.635,5.635,0,0,1-.649.043q-.41.009-.88.026t-.948.017Zm-12.381-.035a10.006,10.006,0,0,1-1.212-.119.7.7,0,0,1-.427-.171.638.638,0,0,1-.137-.461V.769a.554.554,0,0,1,.547-.632q.426-.051,1.152-.094T77.548,0a11.57,11.57,0,0,1,1.93.154,5.018,5.018,0,0,1,1.588.528,2.935,2.935,0,0,1,1.085,1.006,2.94,2.94,0,0,1,.4,1.6v.273a2.823,2.823,0,0,1-.478,1.646,2.857,2.857,0,0,1-1.349,1.032,2.716,2.716,0,0,1,1.391,1.043,2.979,2.979,0,0,1,.5,1.728V9.3a3.544,3.544,0,0,1-.4,1.778,3.01,3.01,0,0,1-1.093,1.112,4.732,4.732,0,0,1-1.588.573,10.643,10.643,0,0,1-1.9.163Q76.779,12.928,76.062,12.893Zm-.188-1.348q.425.017.876.043t.894.026a8.917,8.917,0,0,0,1.43-.1,3.139,3.139,0,0,0,1.073-.36,1.749,1.749,0,0,0,.681-.712,2.444,2.444,0,0,0,.238-1.14V9.008a2.833,2.833,0,0,0-.119-.823,1.7,1.7,0,0,0-.409-.694,2.027,2.027,0,0,0-.791-.48,3.734,3.734,0,0,0-1.251-.18H75.875Zm.8-10.213-.8.034V5.6H78.5a3.862,3.862,0,0,0,1.226-.163A2,2,0,0,0,80.487,5a1.5,1.5,0,0,0,.4-.649A2.686,2.686,0,0,0,81,3.569V3.3a1.821,1.821,0,0,0-.247-1,1.693,1.693,0,0,0-.7-.606,3.375,3.375,0,0,0-1.08-.3,11.791,11.791,0,0,0-1.413-.077Q77.116,1.315,76.675,1.332Zm-31.966,11.6a4.281,4.281,0,0,1-2.724-.734,2.956,2.956,0,0,1-.914-2.442V3.176A2.956,2.956,0,0,1,41.985.735,4.284,4.284,0,0,1,44.709,0q.376,0,.845.009l.931.017q.461.009.871.026c.273.011.5.029.683.051a.186.186,0,0,1,.128.085.283.283,0,0,1,.043.153V1.2c0,.136-.063.205-.188.205h-3.3a5.088,5.088,0,0,0-1.093.094A1.316,1.316,0,0,0,43,1.8a1.068,1.068,0,0,0-.3.547,3.768,3.768,0,0,0-.077.828V5.55h5.243a.334.334,0,0,1,.24.1.324.324,0,0,1,.1.237v.64a.322.322,0,0,1-.1.236.331.331,0,0,1-.24.1H42.625v2.88a3.823,3.823,0,0,0,.077.823,1.078,1.078,0,0,0,.3.558,1.322,1.322,0,0,0,.632.308,5.029,5.029,0,0,0,1.093.094h3.3c.125,0,.188.068.188.2V12.6a.281.281,0,0,1-.043.154.183.183,0,0,1-.128.085,5.641,5.641,0,0,1-.649.043q-.41.009-.879.026t-.948.017Zm51.8-.1a2.954,2.954,0,0,1-1.17-.435,2.347,2.347,0,0,1-.819-.956,3.84,3.84,0,0,1-.308-1.682V.461a.328.328,0,0,1,.1-.239.329.329,0,0,1,.239-.1h.871a.328.328,0,0,1,.239.1.329.329,0,0,1,.1.239v9.29a3.8,3.8,0,0,0,.077.82,1.075,1.075,0,0,0,.3.555,1.314,1.314,0,0,0,.632.308,5.07,5.07,0,0,0,1.093.094h3.3c.125,0,.188.068.188.2v.8a.287.287,0,0,1-.042.153.187.187,0,0,1-.128.086q-.342.051-1.23.1t-2.1.051A8.739,8.739,0,0,1,96.512,12.825ZM57,12.825a2.949,2.949,0,0,1-1.169-.435,2.341,2.341,0,0,1-.819-.956A3.836,3.836,0,0,1,54.7,9.752V.461a.328.328,0,0,1,.1-.239.327.327,0,0,1,.239-.1h.871a.328.328,0,0,1,.239.1.327.327,0,0,1,.1.239v9.29a3.817,3.817,0,0,0,.077.82,1.08,1.08,0,0,0,.3.555,1.319,1.319,0,0,0,.632.308,5.061,5.061,0,0,0,1.093.094h3.3c.125,0,.188.068.188.2v.8a.29.29,0,0,1-.042.153.187.187,0,0,1-.128.086q-.342.051-1.23.1t-2.1.051A8.749,8.749,0,0,1,57,12.825Zm-47.773.051a.888.888,0,0,1-.614-.23,1.229,1.229,0,0,1-.358-.623L6.575,5.7a.478.478,0,0,0-.052-.136.069.069,0,0,0-.051-.017H6.438a.068.068,0,0,0-.051.017.455.455,0,0,0-.051.136L4.645,12.023a1.231,1.231,0,0,1-.359.623.887.887,0,0,1-.615.23H2.955a1.306,1.306,0,0,1-.692-.171.941.941,0,0,1-.367-.7L0,.461V.41A.256.256,0,0,1,.29.12h.99q.239,0,.29.291L3.228,11.305a.934.934,0,0,1,.034.2c0,.04.017.06.052.06s.085-.086.12-.257L5.106,4.971a.78.78,0,0,1,.8-.684H7a.78.78,0,0,1,.8.684L9.478,11.3q.051.257.119.257c.035,0,.052-.02.052-.06a.921.921,0,0,1,.034-.2L11.339.41c.034-.194.131-.291.291-.291h.99a.256.256,0,0,1,.29.29V.461l-1.9,11.544a.943.943,0,0,1-.367.7,1.305,1.305,0,0,1-.691.171Zm126.321-.068a.306.306,0,0,1-.2-.059.9.9,0,0,1-.153-.2l-3.125-4.969L129,12.552q-.171.256-.359.256h-1.008a.249.249,0,0,1-.273-.256.275.275,0,0,1,.051-.171l3.791-6.028L127.448.53A.331.331,0,0,1,127.4.359c0-.159.086-.239.256-.239h1.11a.348.348,0,0,1,.2.043.425.425,0,0,1,.111.128l3.074,4.867L135.116.29a.387.387,0,0,1,.154-.145A.489.489,0,0,1,135.44.12h1.008a.26.26,0,0,1,.2.077.26.26,0,0,1,.068.179.306.306,0,0,1-.051.154L133,6.387l3.843,5.994a.308.308,0,0,1,.051.188.241.241,0,0,1-.068.162.261.261,0,0,1-.2.076Zm-27.99,0a.35.35,0,0,1-.341-.341V3.176a2.956,2.956,0,0,1,.913-2.442A4.286,4.286,0,0,1,110.849,0q.375,0,.845.009l.931.017q.462.009.871.026c.273.011.5.029.682.051a.189.189,0,0,1,.129.085.292.292,0,0,1,.042.153V1.2c0,.136-.063.205-.188.205h-3.3a5.085,5.085,0,0,0-1.093.094,1.316,1.316,0,0,0-.632.308,1.071,1.071,0,0,0-.3.547,3.733,3.733,0,0,0-.077.828V5.55h5.242a.332.332,0,0,1,.239.1.322.322,0,0,1,.1.237v.64a.32.32,0,0,1-.1.236.33.33,0,0,1-.239.1h-5.242v5.6a.33.33,0,0,1-.1.24.327.327,0,0,1-.239.1Zm-36.392,0a.237.237,0,0,1-.188-.076.5.5,0,0,1-.1-.18l-1.11-3.928H65.338l-1.092,3.928a.426.426,0,0,1-.12.18.274.274,0,0,1-.188.076H62.93q-.29,0-.29-.273a.287.287,0,0,1,.017-.12L65.816,1.3a1.712,1.712,0,0,1,.3-.64A1.659,1.659,0,0,1,66.55.265a1.691,1.691,0,0,1,.5-.2,2.288,2.288,0,0,1,.5-.06,2.528,2.528,0,0,1,.5.052,1.534,1.534,0,0,1,.495.2,1.667,1.667,0,0,1,.436.393,1.726,1.726,0,0,1,.3.64l3.159,11.135a.3.3,0,0,1,.017.12q0,.273-.29.273ZM67.216,1.657,65.663,7.275h3.774L67.882,1.657q-.085-.307-.324-.308Q67.3,1.349,67.216,1.657ZM34.24,12.808a.274.274,0,0,1-.222-.1.359.359,0,0,1-.086-.239V1.435H30.6a.426.426,0,0,1-.239-.067.227.227,0,0,1-.1-.2V.423a.271.271,0,0,1,.1-.219A.366.366,0,0,1,30.6.12h8.214c.216,0,.325.1.325.3v.742c0,.18-.109.27-.325.27h-3.33V12.466a.361.361,0,0,1-.086.239.274.274,0,0,1-.222.1Zm-7.327,0a.274.274,0,0,1-.222-.1.36.36,0,0,1-.086-.239V.444a.331.331,0,0,1,.086-.231A.286.286,0,0,1,26.914.12h.939a.285.285,0,0,1,.222.094.331.331,0,0,1,.086.231V12.467a.36.36,0,0,1-.086.239.274.274,0,0,1-.222.1Zm-4.355,0a.35.35,0,0,1-.341-.34V6.814H16.377v5.654a.35.35,0,0,1-.341.34h-.871a.351.351,0,0,1-.341-.341V.461a.326.326,0,0,1,.1-.239.326.326,0,0,1,.239-.1h.871a.326.326,0,0,1,.239.1.326.326,0,0,1,.1.239V5.414h5.841V.461a.328.328,0,0,1,.1-.239.326.326,0,0,1,.238-.1h.871a.328.328,0,0,1,.239.1.327.327,0,0,1,.1.239V12.467a.351.351,0,0,1-.341.341ZM140.894,4.9h0a2.415,2.415,0,0,1-.246-.013,2.107,2.107,0,0,1-.238-.036c-.077-.016-.156-.036-.231-.059s-.149-.051-.221-.081-.142-.064-.21-.1-.134-.077-.2-.121-.126-.09-.185-.138-.117-.1-.171-.156-.106-.112-.156-.171-.095-.122-.138-.185-.084-.13-.12-.2-.071-.139-.1-.21-.057-.146-.081-.221-.043-.152-.059-.23a2.44,2.44,0,0,1-.035-.73,2.264,2.264,0,0,1,.037-.238c.016-.077.036-.155.059-.231s.051-.148.081-.22a2.26,2.26,0,0,1,.1-.21,2.11,2.11,0,0,1,.12-.2,2.182,2.182,0,0,1,.138-.185,2.287,2.287,0,0,1,.154-.17q.082-.082.171-.156c.059-.049.121-.1.184-.138s.13-.084.2-.12a2.185,2.185,0,0,1,.21-.1c.071-.03.145-.058.22-.081s.152-.043.229-.059a2.138,2.138,0,0,1,.237-.037,2.358,2.358,0,0,1,.244-.013h.01c.082,0,.165,0,.247.013s.16.021.239.037a2.33,2.33,0,0,1,.231.06c.075.024.149.051.221.082s.142.064.21.1.134.077.2.121a2.148,2.148,0,0,1,.185.139,2.367,2.367,0,0,1,.325.325,2.277,2.277,0,0,1,.138.186,2.2,2.2,0,0,1,.12.2,2.223,2.223,0,0,1,.1.21c.03.072.058.146.081.221s.043.152.058.23a2.289,2.289,0,0,1,.036.238,2.313,2.313,0,0,1,.012.246c0,.082-.005.165-.013.246s-.02.16-.037.239-.036.155-.059.231-.051.148-.081.22-.065.142-.1.21-.077.134-.12.2a2.213,2.213,0,0,1-.138.185,2.256,2.256,0,0,1-.155.171c-.054.054-.112.106-.17.155s-.121.095-.185.138-.13.083-.2.12-.139.07-.21.1-.146.058-.22.081a2.357,2.357,0,0,1-.468.095,2.381,2.381,0,0,1-.245.013ZM138.977,2.5a1.915,1.915,0,0,0,1.916,1.919h0a1.916,1.916,0,1,0,0-3.832h0A1.917,1.917,0,0,0,138.977,2.5ZM140.468,3.7h-.609a.026.026,0,0,1-.017,0,.021.021,0,0,1,0-.016c0-.767,0-1.577,0-2.477a.031.031,0,0,1,0-.016.021.021,0,0,1,.015,0h.63c.182,0,.321,0,.451,0a1.541,1.541,0,0,1,.249.024,1.009,1.009,0,0,1,.121.028.912.912,0,0,1,.118.042.615.615,0,0,1,.079.038.579.579,0,0,1,.068.046.551.551,0,0,1,.059.053.623.623,0,0,1,.049.06.643.643,0,0,1,.039.066.624.624,0,0,1,.03.074.749.749,0,0,1,.033.165,1,1,0,0,1,0,.179.665.665,0,0,1-.013.088.613.613,0,0,1-.023.087.544.544,0,0,1-.056.117.565.565,0,0,1-.077.1.594.594,0,0,1-.1.077.768.768,0,0,1-.114.061l-.065.025-.031.012.021.007.044.015a.482.482,0,0,1,.077.041.653.653,0,0,1,.067.051.8.8,0,0,1,.112.129,1.49,1.49,0,0,1,.081.133c.025.046.048.093.071.139.008.016.015.032.024.048l.2.412.084.17.008.017.006.012h-.661a.047.047,0,0,1-.025-.005.042.042,0,0,1-.017-.02c-.1-.214-.211-.43-.31-.629a.975.975,0,0,0-.088-.145.372.372,0,0,0-.3-.152c-.031,0-.063,0-.086,0H140.5a.013.013,0,0,0-.012,0,.018.018,0,0,0,0,.013v.583h0c0,.108,0,.22,0,.33a.025.025,0,0,1,0,.017.029.029,0,0,1-.015,0Zm.024-2.042a.03.03,0,0,0,0,.019c0,.074,0,.149,0,.222v.381a.024.024,0,0,0,0,.017.022.022,0,0,0,.015,0h.253a.742.742,0,0,0,.154-.015.253.253,0,0,0,.216-.2.509.509,0,0,0,0-.224.236.236,0,0,0-.163-.182.526.526,0,0,0-.13-.024c-.054,0-.1,0-.15,0h-.179A.028.028,0,0,0,140.492,1.66Z"/></svg>